<svg width="400" height="400" viewBox="0 0 400 400" fill="none" xmlns="http://www.w3.org/2000/svg">
<path d="M271.664 113.692C270.598 106.76 264.732 99.5999 259.248 96.1339C258.676 95.7539 258.106 95.4099 257.534 95.0679C245.118 103.668 222.416 117.578 195.754 121.806C193.698 122.148 191.184 121.652 189.622 123.062C184.71 127.442 183.72 142.754 171.57 143.096C169.892 147.364 168.37 151.476 166.732 154.98C168.718 152.198 183.232 154.836 186.918 155.666C190.534 156.466 206.132 160.716 205.468 164.046C208.21 158.14 207.144 152.162 205.354 145.914C227.102 141.726 257.23 126.338 271.664 113.692Z" fill="#EAA84F"/>
<path d="M81.4541 177.948C77.5858 181.666 72.7019 184.154 67.4198 185.096C62.1377 186.038 56.6948 185.393 51.7794 183.242C46.8639 181.091 42.6967 177.531 39.8047 173.012C36.9127 168.492 35.4259 163.217 35.5322 157.852C35.6385 152.488 37.3331 147.275 40.4019 142.874C43.4706 138.473 47.7756 135.08 52.7724 133.126C57.7692 131.171 63.2334 130.742 68.474 131.893C73.7146 133.044 78.4962 135.723 82.2141 139.592C84.685 142.159 86.6256 145.188 87.9248 148.506C89.224 151.824 89.8564 155.365 89.7858 158.927C89.7152 162.49 88.943 166.003 87.5134 169.267C86.0838 172.531 84.0248 175.48 81.4541 177.948Z" fill="#EAA84F"/>
<path d="M372.978 284.556C375.72 275.072 384.862 277.966 389.89 272.252C390.804 280.976 386.004 289.736 377.32 290.154L372.978 284.556Z" fill="#EAA84F"/>
<path d="M166.274 303.332C162.808 305.352 156.334 301.162 149.25 293.162C149.374 295.923 150.157 298.614 151.534 301.01C156.334 309.998 156.106 332.166 161.438 330.61C162.924 330.152 164.676 322.61 166.238 313.966C167.047 309.789 168.115 305.667 169.438 301.624C168.776 301.962 166.938 302.89 166.274 303.332Z" fill="#1E0930"/>
<path d="M188.442 112.322C189.141 114.356 190.171 116.26 191.49 117.958C194.84 117.464 198.564 116.448 199.258 114.912C199.378 114.652 199.482 114.386 199.564 114.112C198.688 116.892 193.622 115.026 188.442 112.322Z" fill="#1E0930"/>
<path d="M192.936 91.8683C186.194 84.7843 164.218 90.3443 149.326 101.124C134.358 111.94 138.662 122.072 158.048 117.426C156.906 117.768 144.488 121.5 136.376 130.826C124.454 144.538 134.814 149.794 148.176 147.052C164.134 143.776 177.846 130.674 182.492 121.608C184.626 116.267 186.073 110.676 186.8 104.97C181.24 100.438 184.63 96.3243 187.676 99.4483C189.314 101.124 191.142 100.324 189.124 94.8483C191.158 93.5863 193.6 93.1823 192.936 91.8683Z" fill="#1E0930"/>
<path d="M243.784 313.312C243.08 304.269 243.182 295.18 244.088 286.154C236.862 288.195 229.196 288.076 222.036 285.812C222.188 292.136 220.208 295.334 221.846 299.258C222.83 301.458 224.226 303.448 225.958 305.122C233.12 312.36 239.252 333.688 243.936 330.642C245.232 329.8 244.736 322.073 243.784 313.312Z" fill="#1E0930"/>
<path d="M172.14 153.762C171.798 155.53 171.26 157.254 170.54 158.904C164.332 155.818 165.78 153.8 172.14 153.762Z" fill="#1E0930"/>
<path d="M205.506 164C205.352 164.724 204.324 165.182 202.61 165.4C203.258 164.22 203.83 163.152 204.324 162.086C205.2 162.826 205.618 163.474 205.506 164Z" fill="#1E0930"/>
<path d="M222.568 222.434L218.568 233.898C218.416 229.442 218.264 225.062 218.186 220.758L222.568 222.434Z" fill="#1E0930"/>
<path d="M85.7819 303.37C75.5539 285.862 61.9819 270.95 55.5699 273.42C46.8919 276.764 58.6659 303.58 65.4179 315.292C76.7679 334.946 90.4799 348.276 96.1999 345.2C104.514 340.568 90.9319 312.184 85.7819 303.37Z" fill="#1E0930"/>
<path d="M156.106 262.122C144.832 242.62 131.158 229.442 125.52 232.722C119.846 235.996 124.416 254.432 135.652 273.932C146.888 293.432 160.6 306.574 166.236 303.332C171.912 300.058 167.342 281.622 156.106 262.122Z" fill="#1E0930"/>
<path d="M169.436 301.618C168.117 305.663 167.048 309.784 166.236 313.96C164.692 322.608 162.926 330.16 161.436 330.604C156.114 332.204 156.314 310.004 151.532 301.004C150.152 298.609 149.368 295.918 149.248 293.156" stroke="#1E0930" stroke-width="2.5" stroke-linecap="round" stroke-linejoin="round"/>
<path d="M301.258 158.294C300.498 157.064 299.477 156.016 298.268 155.225C297.058 154.433 295.689 153.917 294.258 153.714C292.826 153.51 291.368 153.624 289.985 154.047C288.603 154.469 287.33 155.191 286.258 156.16C285.832 154.714 285.08 153.385 284.058 152.276C283.036 151.167 281.773 150.308 280.366 149.766C278.339 148.984 276.111 148.897 274.029 149.519C271.948 150.14 270.132 151.435 268.866 153.2C268.1 154.259 267.552 155.459 267.252 156.73C266.07 155.84 264.702 155.227 263.25 154.939C261.798 154.651 260.3 154.695 258.867 155.067C257.434 155.439 256.104 156.129 254.976 157.087C253.847 158.045 252.95 159.245 252.35 160.598C251.549 162.409 251.313 164.419 251.674 166.366C250.389 166.03 249.049 165.954 247.734 166.144C246.419 166.334 245.155 166.786 244.018 167.472C242.734 168.26 241.649 169.333 240.845 170.607C240.041 171.88 239.541 173.322 239.383 174.82C239.224 176.318 239.412 177.832 239.932 179.246C240.452 180.66 241.289 181.935 242.38 182.974C240.366 183.767 238.67 185.201 237.553 187.055C236.437 188.909 235.964 191.08 236.206 193.23C236.364 194.656 236.834 196.03 237.58 197.256C238.623 198.979 240.179 200.332 242.031 201.125C243.882 201.917 245.935 202.109 247.902 201.674L301.072 169.074C302.41 168.268 304.036 162.78 301.258 158.294Z" stroke="#1E0930" stroke-width="2.5" stroke-linecap="round" stroke-linejoin="round"/>
<path d="M260.924 173.414C261.861 174.299 262.555 175.409 262.939 176.639C263.323 177.869 263.384 179.178 263.116 180.438C262.849 181.699 262.262 182.869 261.411 183.837C260.561 184.805 259.476 185.538 258.26 185.966C256.631 186.538 254.855 186.531 253.23 185.946" stroke="#1E0930" stroke-width="2.5" stroke-linecap="round" stroke-linejoin="round"/>
<path d="M284.614 166.712C284.402 168.252 283.72 169.689 282.66 170.826C281.6 171.964 280.215 172.747 278.694 173.068C277.173 173.388 275.59 173.232 274.161 172.619C272.733 172.006 271.528 170.967 270.712 169.644C270.367 169.072 270.098 168.458 269.912 167.816" stroke="#1E0930" stroke-width="2.5" stroke-linecap="round" stroke-linejoin="round"/>
<path d="M286.252 156.16C285.228 157.126 284.378 158.26 283.738 159.514" stroke="#1E0930" stroke-width="2.5" stroke-linecap="round" stroke-linejoin="round"/>
<path d="M245.848 182.332C244.667 182.391 243.498 182.608 242.374 182.976" stroke="#1E0930" stroke-width="2.5" stroke-linecap="round" stroke-linejoin="round"/>
<path d="M267.246 156.732C266.997 157.973 266.955 159.247 267.124 160.502" stroke="#1E0930" stroke-width="2.5" stroke-linecap="round" stroke-linejoin="round"/>
<path d="M255.442 168.134C254.299 167.325 253.021 166.727 251.668 166.368" stroke="#1E0930" stroke-width="2.5" stroke-linecap="round" stroke-linejoin="round"/>
<path d="M314.818 180.308C311.992 175.654 306.16 174.824 305.144 175.586L251.934 208.228C250.412 209.142 248.322 214.672 251.212 219.348C251.964 220.57 252.975 221.612 254.172 222.403C255.369 223.193 256.725 223.712 258.144 223.924C259.564 224.135 261.013 224.031 262.388 223.62C263.763 223.21 265.032 222.502 266.104 221.548C266.715 223.646 268.009 225.48 269.782 226.758C271.554 228.036 273.703 228.685 275.887 228.602C278.07 228.519 280.163 227.708 281.833 226.299C283.504 224.89 284.655 222.963 285.104 220.824C286.677 222.028 288.576 222.729 290.554 222.834C292.532 222.94 294.495 222.446 296.188 221.417C297.88 220.388 299.221 218.871 300.037 217.066C300.853 215.261 301.104 213.252 300.758 211.302C302.868 211.835 305.096 211.653 307.092 210.784C309.087 209.915 310.738 208.408 311.786 206.5C312.832 204.591 313.214 202.388 312.872 200.238C312.531 198.087 311.484 196.111 309.898 194.62C311.248 194.107 312.47 193.304 313.475 192.267C314.48 191.229 315.245 189.984 315.716 188.618C316.185 187.252 316.347 185.799 316.192 184.363C316.037 182.927 315.568 181.543 314.818 180.308Z" stroke="#1E0930" stroke-width="2.5" stroke-linecap="round" stroke-linejoin="round"/>
<path d="M283.014 209.446C282.721 208.455 282.227 207.535 281.563 206.743C280.899 205.951 280.079 205.305 279.155 204.843C278.23 204.382 277.22 204.116 276.188 204.062C275.156 204.007 274.124 204.166 273.156 204.528C271.862 205.013 270.727 205.845 269.874 206.932C269.04 208.006 268.502 209.28 268.312 210.626" stroke="#1E0930" stroke-width="2.5" stroke-linecap="round" stroke-linejoin="round"/>
<path d="M299.736 191.4C298.107 190.839 296.335 190.853 294.714 191.439C293.094 192.024 291.723 193.147 290.829 194.62C289.934 196.092 289.571 197.827 289.799 199.534C290.026 201.242 290.831 202.821 292.08 204.008" stroke="#1E0930" stroke-width="2.5" stroke-linecap="round" stroke-linejoin="round"/>
<path d="M309.904 194.63C308.562 195.126 307.144 195.384 305.714 195.392" stroke="#1E0930" stroke-width="2.5" stroke-linecap="round" stroke-linejoin="round"/>
<path d="M268.212 218.8C267.642 219.816 266.932 220.746 266.104 221.566" stroke="#1E0930" stroke-width="2.5" stroke-linecap="round" stroke-linejoin="round"/>
<path d="M300.764 211.312C299.538 210.96 298.378 210.41 297.33 209.684" stroke="#1E0930" stroke-width="2.5" stroke-linecap="round" stroke-linejoin="round"/>
<path d="M285.218 216.754C285.399 218.111 285.363 219.488 285.11 220.834" stroke="#1E0930" stroke-width="2.5" stroke-linecap="round" stroke-linejoin="round"/>
<path d="M251.934 208.228L246.26 211.654" stroke="#1E0930" stroke-width="2.5" stroke-linecap="round" stroke-linejoin="round"/>
<path d="M247.898 201.676L242.298 205.066" stroke="#1E0930" stroke-width="2.5" stroke-linecap="round" stroke-linejoin="round"/>
<path d="M218.38 228.604L157.896 265.32" stroke="#1E0930" stroke-width="2.5" stroke-linecap="round" stroke-linejoin="round"/>
<path d="M217.16 220.338L154.048 258.694" stroke="#1E0930" stroke-width="2.5" stroke-linecap="round" stroke-linejoin="round"/>
<path d="M270.864 114.378C284.41 113.125 298.03 115.812 310.084 122.116C322.139 128.42 332.116 138.073 338.814 149.914C359.046 184.684 348.448 229.59 315.16 250.2C294.338 263.092 288.56 256.276 248.126 267.8" stroke="#1E0930" stroke-width="2.5" stroke-linecap="round" stroke-linejoin="round"/>
<path d="M166.672 303.036C185.168 293.39 201.698 284.958 218.722 278.004" stroke="#1E0930" stroke-width="2.5" stroke-linecap="round" stroke-linejoin="round"/>
<path d="M168.788 200.266C155.954 210.55 141.898 220.568 125.482 232.68" stroke="#1E0930" stroke-width="2.5" stroke-linecap="round" stroke-linejoin="round"/>
<path d="M223.94 140.468C215.958 152.468 207.002 163.794 197.164 174.328" stroke="#1E0930" stroke-width="2.5" stroke-linecap="round" stroke-linejoin="round"/>
<path d="M257.496 95.1059C263.932 98.7239 270.484 106.152 271.664 113.692C257.228 126.338 227.102 141.726 205.354 145.914C207.144 152.162 208.21 158.142 205.468 164.046C206.132 160.72 190.762 156.524 186.918 155.666C183.166 154.828 168.702 152.224 166.732 154.98C168.37 151.476 169.894 147.362 171.57 143.096C183.72 142.754 184.69 127.42 189.622 123.062C191.176 121.69 193.622 122.15 195.754 121.806C222.4 117.472 245.118 103.676 257.534 95.0679L257.496 95.1059Z" stroke="#1E0930" stroke-width="2.5" stroke-linecap="round" stroke-linejoin="round"/>
<path d="M168.912 161.76C179.816 161.587 190.555 164.439 199.936 170" stroke="#1E0930" stroke-width="2.5" stroke-linecap="round" stroke-linejoin="round"/>
<path d="M199.388 114.518C198.146 116.69 193.346 114.882 188.442 112.318C189.141 114.351 190.171 116.256 191.49 117.954" stroke="#1E0930" stroke-width="2.5" stroke-linecap="round" stroke-linejoin="round"/>
<path d="M194.342 121.948C191.688 121.296 192.398 120.004 191.49 117.958C198.65 116.9 199.89 115.582 199.596 111.994C199.166 106.782 196.106 95.4262 192.936 91.8682" stroke="#1E0930" stroke-width="2.5" stroke-linecap="round" stroke-linejoin="round"/>
<path d="M205.354 145.914C203.144 146.334 201.012 146.638 199.03 146.83" stroke="#1E0930" stroke-width="2.5" stroke-linecap="round" stroke-linejoin="round"/>
<path d="M189.128 94.8401C191.146 100.324 189.328 101.124 187.68 99.4401C184.632 96.3181 181.244 100.44 186.804 104.962C186.079 110.67 184.633 116.263 182.5 121.606C177.854 130.672 164.142 143.774 148.184 147.05C134.814 149.792 124.454 144.536 136.384 130.824C144.496 121.492 156.914 117.76 158.056 117.424C138.67 122.07 134.37 111.944 149.334 101.122C164.23 90.3481 186.202 84.7821 192.944 91.8661C193.588 93.1701 191.086 93.6301 189.128 94.8401Z" stroke="#1E0930" stroke-width="2.5" stroke-linecap="round" stroke-linejoin="round"/>
<path d="M171.57 143.096C173.582 137.653 176.174 132.443 179.302 127.556C180.539 125.706 181.597 123.742 182.462 121.692" stroke="#1E0930" stroke-width="2.5" stroke-linecap="round" stroke-linejoin="round"/>
<path d="M197.222 174.268C199.863 170.379 202.242 166.318 204.344 162.112" stroke="#1E0930" stroke-width="2.5" stroke-linecap="round" stroke-linejoin="round"/>
<path d="M279.968 93.2401C285.718 91.8681 290.452 94.4601 290.06 96.6681C289.972 97.111 289.791 97.5301 289.528 97.8977C289.266 98.2652 288.928 98.5728 288.538 98.8001" stroke="#1E0930" stroke-width="2.5" stroke-linecap="round" stroke-linejoin="round"/>
<path d="M279.434 89.7361C285.49 88.2881 291.508 91.3361 288.918 94.5361" stroke="#1E0930" stroke-width="2.5" stroke-linecap="round" stroke-linejoin="round"/>
<path d="M271.016 110.95C274.6 106.859 279.198 103.786 284.348 102.038" stroke="#1E0930" stroke-width="2.5" stroke-linecap="round" stroke-linejoin="round"/>
<path d="M279.738 97.3519C285.338 96.2099 289.026 98.4179 288.804 100.59C288.53 103.256 283.204 107.294 278.71 104.704" stroke="#1E0930" stroke-width="2.5" stroke-linecap="round" stroke-linejoin="round"/>
<path d="M275.016 87.716C275.092 87.64 277.416 84.404 276.388 83.374C275.512 82.498 262.866 92.896 259.324 96.21" stroke="#1E0930" stroke-width="2.5" stroke-linecap="round" stroke-linejoin="round"/>
<path d="M282.29 89.3543C292.346 84.5183 295.046 78.6843 293.146 79.7543C286.805 82.9282 280.295 85.7512 273.644 88.2103C268.497 90.1687 263.66 92.8635 259.286 96.2103" stroke="#1E0930" stroke-width="2.5" stroke-linecap="round" stroke-linejoin="round"/>
<path d="M244.088 286.154C243.19 295.18 243.088 304.268 243.784 313.312C244.754 322.07 245.23 329.802 243.936 330.642C239.248 333.684 233.106 312.374 225.958 305.122C224.223 303.451 222.826 301.459 221.846 299.258C220.204 295.328 222.194 292.124 222.034 285.78" stroke="#1E0930" stroke-width="2.5" stroke-linecap="round" stroke-linejoin="round"/>
<path d="M156.106 262.122C167.356 281.614 171.916 300.064 166.236 303.322C160.604 306.566 146.888 293.42 135.652 273.922C124.416 254.424 119.85 236 125.52 232.718C131.19 229.436 144.846 242.612 156.106 262.122Z" stroke="#1E0930" stroke-width="2.5" stroke-linecap="round" stroke-linejoin="round"/>
<path d="M98.296 334.464C95.448 316.738 78.328 287.246 64.428 276.596C57.248 271.034 52.106 272.018 52.694 281.346C53.81 299.046 73.52 333.194 88.232 343.214C96.4 348.774 99.912 344.526 98.296 334.464Z" stroke="#1E0930" stroke-width="2.5" stroke-linecap="round" stroke-linejoin="round"/>
<path d="M96.578 345L107.886 338.458C108.975 337.604 109.715 336.382 109.967 335.022C110.22 333.662 109.968 332.256 109.258 331.068C113.758 337.846 122.588 330.848 119.046 324.974C122.332 330.574 132.664 326.958 128.416 318.462C129.378 319.711 130.75 320.579 132.29 320.913C133.83 321.248 135.439 321.027 136.832 320.29C141.432 317.354 139.726 311.644 136.872 302.35C131.533 286.388 123.065 271.65 111.962 259C109.294 255.822 106.239 252.989 102.868 250.568C97.538 247.262 91.542 249.74 93.604 258.734C91.908 255.908 89.918 254.06 86.556 254.962C85.7075 255.199 84.9252 255.629 84.2702 256.218C83.6151 256.807 83.1052 257.539 82.78 258.358C82.4551 259.177 82.3245 260.06 82.3984 260.938C82.4723 261.816 82.7488 262.665 83.206 263.418C83.206 263.418 79.26 258.43 74.788 261.972C73.6782 262.838 72.9306 264.086 72.6909 265.473C72.4513 266.86 72.7369 268.286 73.492 269.474C72.9505 268.517 72.1354 267.743 71.1511 267.252C70.1668 266.762 69.0584 266.576 67.968 266.72C67.2439 266.815 66.5458 267.052 65.914 267.418L55.27 273.542" stroke="#1E0930" stroke-width="2.5" stroke-linecap="round" stroke-linejoin="round"/>
<path d="M372.978 284.556C368.281 287.151 363.775 290.078 359.496 293.316C346.924 303.026 334.662 315.216 336.296 317.35C337.93 319.484 352.792 310.728 365.394 301.01C369.618 297.69 373.59 294.062 377.278 290.154" stroke="#1E0930" stroke-width="2.5" stroke-linecap="round" stroke-linejoin="round"/>
<path d="M372.978 284.556C375.72 275.072 384.862 277.966 389.89 272.252C390.804 280.976 386.004 289.736 377.32 290.154L372.978 284.556Z" stroke="#1E0930" stroke-width="2.5" stroke-linecap="round" stroke-linejoin="round"/>
<path d="M361.076 292.122L366.96 299.752" stroke="#1E0930" stroke-width="2.5" stroke-linecap="round" stroke-linejoin="round"/>
<path d="M381.93 102.114L376.94 113.292H386.08L381.052 124.472" stroke="#1E0930" stroke-width="2.5" stroke-linecap="round" stroke-linejoin="round"/>
<path d="M204.324 378.214L184.062 378.822" stroke="#1E0930" stroke-width="2.5" stroke-linecap="round" stroke-linejoin="round"/>
<path d="M194.498 388.65L193.888 368.386" stroke="#1E0930" stroke-width="2.5" stroke-linecap="round" stroke-linejoin="round"/>
<path d="M172.14 153.762C171.798 155.53 171.26 157.254 170.54 158.904C164.332 155.818 165.78 153.8 172.14 153.762Z" stroke="#1E0930" stroke-width="2.5" stroke-linecap="round" stroke-linejoin="round"/>
<path d="M205.468 164.046C205.284 164.736 204.306 165.186 202.652 165.41" stroke="#1E0930" stroke-width="2.5" stroke-linecap="round" stroke-linejoin="round"/>
<path d="M172.14 153.762C171.516 158.089 169.32 162.035 165.97 164.844C151.002 176.728 150.77 193.372 161.704 205.828" stroke="#1E0930" stroke-width="2.5" stroke-linecap="round" stroke-linejoin="round"/>
<path d="M54.604 273.958L37.728 283.526" stroke="#1E0930" stroke-width="2.5" stroke-linecap="round" stroke-linejoin="round"/>
<path d="M95.8041 345.418L80.6541 354.256" stroke="#1E0930" stroke-width="2.5" stroke-linecap="round" stroke-linejoin="round"/>
<path d="M73.34 358.864L62.104 365.416" stroke="#1E0930" stroke-width="2.5" stroke-linecap="round" stroke-linejoin="round"/>
<path d="M29.882 288.44L18.418 294.954" stroke="#1E0930" stroke-width="2.5" stroke-linecap="round" stroke-linejoin="round"/>
<path d="M65.4559 315.292L28.5479 337.116" stroke="#1E0930" stroke-width="2.5" stroke-linecap="round" stroke-linejoin="round"/>
<path d="M21.198 341.726L10 348.238" stroke="#1E0930" stroke-width="2.5" stroke-linecap="round" stroke-linejoin="round"/>
<path d="M81.4541 177.948C77.5859 181.666 72.7019 184.154 67.4198 185.096C62.1377 186.039 56.6948 185.394 51.7794 183.243C46.8639 181.092 42.6967 177.532 39.8047 173.012C36.9127 168.493 35.4259 163.217 35.5322 157.853C35.6385 152.488 37.3331 147.276 40.4019 142.875C43.4706 138.473 47.7756 135.081 52.7724 133.126C57.7692 131.172 63.2334 130.743 68.474 131.894C73.7146 133.045 78.4962 135.724 82.2141 139.592C84.685 142.159 86.6256 145.188 87.9248 148.506C89.224 151.824 89.8564 155.365 89.7858 158.928C89.7152 162.49 88.943 166.004 87.5134 169.267C86.0838 172.531 84.0248 175.481 81.4541 177.948Z" stroke="#1E0930" stroke-width="2.5" stroke-linecap="round" stroke-linejoin="round"/>
<path d="M89.7561 160C98.1741 164 103.156 167.8 102.44 170.2C101.158 174.534 82.2141 172.866 60.0861 166.466C37.9581 160.066 21.0401 151.36 22.3021 147.02C23.0221 144.542 29.4241 144.01 38.9021 145.192" stroke="#1E0930" stroke-width="2.5" stroke-linecap="round" stroke-linejoin="round"/>
<path d="M163.2 188.306C164.304 195.238 168.2 201.594 173.446 203.238C189.828 208.362 218.198 220.796 218.198 220.796C218.552 240.412 220.328 261.996 218.428 284.556C227.512 288.38 237.708 288.61 246.956 285.202C248.556 263.912 249.582 243.496 249.202 224.642C249.116 219.951 248.028 215.332 246.012 211.095C243.995 206.858 241.097 203.101 237.51 200.076C222.707 187.839 206.204 177.819 188.518 170.33" stroke="#1E0930" stroke-width="2.5" stroke-linecap="round" stroke-linejoin="round"/>
<path d="M218.188 220.796L222.568 222.434L218.57 233.898" stroke="#1E0930" stroke-width="2.5" stroke-linecap="round" stroke-linejoin="round"/>
<path d="M219.218 269.51C228.478 272.688 238.448 273.177 247.974 270.92" stroke="#1E0930" stroke-width="2.5" stroke-linecap="round" stroke-linejoin="round"/>
<path d="M210.838 11.3501V17.7121" stroke="#1E0930" stroke-width="2.5" stroke-linecap="round" stroke-linejoin="round"/>
<path d="M223.216 23.728H216.854" stroke="#1E0930" stroke-width="2.5" stroke-linecap="round" stroke-linejoin="round"/>
<path d="M210.838 36.1081V29.7461" stroke="#1E0930" stroke-width="2.5" stroke-linecap="round" stroke-linejoin="round"/>
<path d="M198.46 23.728H204.824" stroke="#1E0930" stroke-width="2.5" stroke-linecap="round" stroke-linejoin="round"/>
<path d="M216.854 23.7279C216.063 23.7303 215.28 23.5763 214.549 23.2748C213.818 22.9733 213.154 22.5303 212.595 21.9712C212.036 21.4121 211.593 20.7479 211.291 20.0169C210.99 19.286 210.836 18.5026 210.838 17.7119C210.842 18.9024 210.491 20.067 209.83 21.0573C209.169 22.0475 208.229 22.8185 207.128 23.2719C206.398 23.5742 205.615 23.7292 204.824 23.7279C205.615 23.7261 206.398 23.8805 207.129 24.1823C207.859 24.4841 208.523 24.9274 209.082 25.4867C209.641 26.0459 210.084 26.7101 210.385 27.441C210.686 28.172 210.84 28.9553 210.838 29.7459C210.836 28.9551 210.99 28.1717 211.291 27.4406C211.592 26.7095 212.036 26.0452 212.595 25.486C213.154 24.9267 213.818 24.4835 214.549 24.1817C215.28 23.88 216.063 23.7258 216.854 23.7279Z" stroke="#1E0930" stroke-width="2.5" stroke-linecap="round" stroke-linejoin="round"/>
</svg>
