<svg width="98" height="13" viewBox="0 0 98 13" fill="none" xmlns="http://www.w3.org/2000/svg">
<g clip-path="url(#clip0_201_22)">
<path d="M39.7848 6.40935L34.9766 1.60107L30.1683 6.40935L34.9766 11.2176L39.7848 6.40935Z" stroke="#EAA84F" stroke-width="0.75" stroke-miterlimit="10"/>
<path d="M66.8923 6.38787L62.084 1.57959L57.2757 6.38787L62.084 11.1961L66.8923 6.38787Z" stroke="#EAA84F" stroke-width="0.75" stroke-miterlimit="10"/>
<path d="M48.6008 12.1001L39.8008 6.4001L48.6008 0.600098L57.3008 6.4001L48.6008 12.1001Z" stroke="#EAA84F" stroke-width="0.75" stroke-miterlimit="10"/>
<path d="M3.19922 6.3999H30.1992" stroke="#EAA84F" stroke-width="0.75" stroke-miterlimit="10"/>
<path d="M2.59961 8.8999C3.98032 8.8999 5.09961 7.78061 5.09961 6.3999C5.09961 5.01919 3.98032 3.8999 2.59961 3.8999C1.2189 3.8999 0.0996094 5.01919 0.0996094 6.3999C0.0996094 7.78061 1.2189 8.8999 2.59961 8.8999Z" fill="#EAA84F"/>
<path d="M93.9004 6.3999H66.9004" stroke="#EAA84F" stroke-width="0.75" stroke-miterlimit="10"/>
<path d="M94.4004 8.8999C95.7811 8.8999 96.9004 7.78061 96.9004 6.3999C96.9004 5.01919 95.7811 3.8999 94.4004 3.8999C93.0197 3.8999 91.9004 5.01919 91.9004 6.3999C91.9004 7.78061 93.0197 8.8999 94.4004 8.8999Z" fill="#EAA84F"/>
</g>
<defs>
<clipPath id="clip0_201_22">
<rect width="97.1" height="12.7" fill="white"/>
</clipPath>
</defs>
</svg>
