<svg width="400" height="400" viewBox="0 0 400 400" fill="none" xmlns="http://www.w3.org/2000/svg">
<path d="M353.632 177.016C349.084 177.016 347.372 154.874 351.922 154.52C327.322 157.138 302.064 161.162 284.894 158.434C278.866 165.867 273.948 174.136 270.294 182.982C267.974 174.656 267.13 165.987 267.8 157.37C264.534 157.104 228.89 133.47 213.882 124.692C210.627 126.892 207.855 129.731 205.731 133.036C203.608 136.341 202.18 140.043 201.532 143.918L254.132 175.918L258.274 169.952C257.306 172.334 256.764 174.868 256.674 177.438C256.522 182.606 258.194 190.166 264.424 203.438C270.504 205.262 280.424 202.45 287.984 198.08C287.642 193.33 289.96 187.516 291.708 182.654C290.365 181.671 288.956 180.782 287.49 179.994C309.782 181.462 330.758 179.8 353.632 177.016Z" fill="#EAA84F"/>
<path d="M168.316 211.936C156.763 211.031 145.171 210.714 133.586 210.986C134.31 208.524 134.742 205.986 134.878 203.424C125.378 205.894 116.182 205.97 103.948 204.224V204.072C98.2636 207.832 93.3016 221.164 96.8656 230.964L86.9996 251.8L58.8816 233.86C50.4076 239.142 46.1516 245.906 43.0356 256.28L78.4876 280.56C80.8656 282.192 83.5625 283.303 86.4006 283.817C89.2388 284.332 92.1538 284.24 94.9536 283.546C97.7535 282.853 100.375 281.576 102.645 279.797C104.916 278.018 106.783 275.779 108.126 273.226L119.45 251.682L105.158 240.766C107.253 241.99 109.504 242.926 111.85 243.55C123.516 246.78 140.576 245.488 152.05 244.082C148.675 257.506 146.037 271.104 144.148 284.816C151.383 289.683 160.205 291.6 168.808 290.174C175.235 272.162 180.665 253.809 185.074 235.2C186.065 231.208 185.72 227.001 184.091 223.224C182.461 219.448 179.638 216.31 176.054 214.292C173.676 212.954 171.035 212.15 168.316 211.936Z" fill="#EAA84F"/>
<path d="M334.71 94.064C334.279 93.6285 333.729 93.3316 333.129 93.2115C332.529 93.0914 331.906 93.1536 331.342 93.39C330.966 93.5461 330.626 93.7752 330.34 94.064L329.54 94.864L328.74 94.064C328.154 93.5113 327.377 93.2086 326.572 93.2201C325.767 93.2317 324.999 93.5566 324.43 94.1259C323.861 94.6952 323.536 95.464 323.525 96.2688C323.514 97.0736 323.817 97.8511 324.37 98.436L329.57 103.604L334.7 98.436C335.135 98.0059 335.432 97.4558 335.554 96.856C335.675 96.2561 335.615 95.6336 335.382 95.068C335.226 94.6923 334.998 94.3511 334.71 94.064Z" fill="#EAA84F"/>
<path d="M117.132 316.354L111.85 315.556L109.494 310.806L107.138 315.556L101.858 316.354L105.696 320.04L104.784 325.284L109.494 322.814L114.206 325.284L113.294 320.04L117.132 316.354Z" fill="#EAA84F"/>
<path d="M275.85 149.8L271.85 153.6C272.22 152.546 272.45 151.446 272.534 150.332C273.656 150.278 274.768 150.1 275.85 149.8Z" fill="#1E0930"/>
<path d="M292.494 180.246C292.228 181.006 291.962 181.804 291.658 182.646C290.315 181.662 288.906 180.774 287.44 179.986C289.15 180.056 290.822 180.17 292.494 180.246Z" fill="#1E0930"/>
<path d="M323.424 117.168C317.2 112 300.322 126.516 300.322 126.516C303.436 111.164 280.638 124.316 272.962 131.798C276.914 128.644 280.068 135.482 279.726 139.358C279.726 140.272 280.22 140.462 281.626 139.474C284.552 137.346 286.642 142.4 281.132 144.754C280.762 145.154 280.49 145.634 280.332 146.154C279.322 149.022 279.256 152.138 280.142 155.046C305.716 149.81 329.618 122.298 323.424 117.168Z" fill="#1E0930"/>
<path d="M279.498 233.746L276.458 236.368L273.798 225.082L279.498 233.746Z" fill="#1E0930"/>
<path d="M196.016 56.9019C192.97 56.9019 189.993 57.8051 187.46 59.4973C184.928 61.1894 182.954 63.5946 181.788 66.4086C180.623 69.2225 180.318 72.319 180.912 75.3063C181.506 78.2936 182.973 81.0376 185.127 83.1913C187.28 85.3451 190.024 86.8118 193.012 87.406C195.999 88.0002 199.095 87.6952 201.909 86.5296C204.723 85.364 207.128 83.3902 208.821 80.8577C210.513 78.3251 211.416 75.3477 211.416 72.3019C211.421 69.2545 210.521 66.2742 208.829 63.7395C207.137 61.2049 204.73 59.2301 201.914 58.0659C200.044 57.2936 198.039 56.898 196.016 56.9019ZM196.396 81.6779C196.396 81.7787 196.356 81.8753 196.285 81.9466C196.213 82.0178 196.117 82.0579 196.016 82.0579C195.965 82.0608 195.915 82.0529 195.867 82.0349C195.82 82.0168 195.777 81.9889 195.741 81.953C195.705 81.9171 195.677 81.8741 195.659 81.8267C195.641 81.7792 195.633 81.7285 195.636 81.6779V69.7459C195.636 69.6453 195.677 69.5489 195.748 69.4778C195.819 69.4066 195.915 69.3664 196.016 69.3659C196.067 69.363 196.117 69.3708 196.165 69.3889C196.212 69.407 196.255 69.4349 196.291 69.4707C196.327 69.5066 196.355 69.5497 196.373 69.5971C196.391 69.6445 196.399 69.6952 196.396 69.7459V81.6779ZM194.952 63.9719C194.964 63.6927 195.083 63.4289 195.285 63.2356C195.487 63.0423 195.756 62.9344 196.035 62.9344C196.314 62.9344 196.583 63.0423 196.785 63.2356C196.987 63.4289 197.106 63.6927 197.118 63.9719C197.106 64.2511 196.987 64.5148 196.785 64.7081C196.583 64.9014 196.314 65.0093 196.035 65.0093C195.756 65.0093 195.487 64.9014 195.285 64.7081C195.083 64.5148 194.964 64.2511 194.952 63.9719Z" fill="#1E0930"/>
<path d="M104.934 240.624L119.45 251.682L122.832 245.298C116.586 245.138 110.461 243.538 104.934 240.624Z" fill="#1E0930"/>
<path d="M117.474 156.876L112.914 153.8C114.224 153.958 115.546 154.008 116.866 153.952C116.97 154.944 117.174 155.924 117.474 156.876Z" fill="#1E0930"/>
<path d="M258.22 169.948C257.252 172.33 256.71 174.864 256.62 177.434L254.074 175.876L258.22 169.948Z" fill="#1E0930"/>
<path d="M136.93 170.214C137.27 171.87 137.51 173.546 137.652 175.23C138.374 174.888 139.172 174.47 139.97 174.052L136.93 170.214Z" fill="#1E0930"/>
<path d="M147.302 287.932C146.43 290.44 145.326 292.948 144.568 295.15C145.158 297.678 146.077 300.118 147.302 302.408C151.14 309.514 154.978 323.46 158.018 326.956C159.69 321.978 161.476 309.478 162.654 302.446C156.723 298.548 151.526 293.635 147.302 287.932Z" fill="#1E0930"/>
<path d="M46.152 230.858C43.5598 230.744 40.9642 230.987 38.438 231.58C30.534 233.404 16.058 233.404 11.916 235.418C16.248 238.382 27.836 243.436 34.296 246.4C39.6362 241.689 45.7745 237.97 52.422 235.418C50.18 233.898 48.052 232.188 46.152 230.858Z" fill="#1E0930"/>
<path d="M113.674 132.6C112.42 130.548 109.674 130.662 109.95 132.22C108.242 130.7 105.278 131.42 105.618 133.17C103.568 131.498 101.174 132.828 101.666 134.424C99.882 133.056 97.944 134.424 98.552 136.058C96.006 134.956 93.878 136.858 96.88 139.858C98.172 141.15 103.794 145.328 106.948 150.61C107.142 149.85 107.124 149.052 106.896 148.301C106.668 147.551 106.239 146.878 105.656 146.354C102.54 143.998 104.668 141.188 106.644 143.124C108.392 144.834 107.824 142.324 106.568 140.084C106.828 140.309 107.141 140.465 107.477 140.537C107.813 140.609 108.162 140.595 108.491 140.497C108.821 140.399 109.12 140.219 109.362 139.975C109.604 139.73 109.78 139.428 109.874 139.098C110.123 139.286 110.41 139.418 110.716 139.484C111.021 139.549 111.337 139.548 111.642 139.479C111.946 139.41 112.232 139.276 112.48 139.086C112.727 138.895 112.93 138.653 113.074 138.376C114.474 139.362 116.38 138.756 116.456 137.274C115.612 135.826 114.662 134.23 113.674 132.6Z" fill="#1E0930"/>
<path d="M103.8 183.36L101.028 186.932C100.648 185.452 100.268 184.006 99.8501 182.602C101.136 182.83 103.8 183.36 103.8 183.36Z" fill="#1E0930"/>
<path d="M65.0361 173.976C65.023 174.31 64.8812 174.625 64.6405 174.857C64.3999 175.088 64.079 175.217 63.7451 175.217C63.4112 175.217 63.0903 175.088 62.8497 174.857C62.609 174.625 62.4672 174.31 62.4541 173.976C62.4672 173.642 62.609 173.327 62.8497 173.095C63.0903 172.864 63.4112 172.735 63.7451 172.735C64.079 172.735 64.3999 172.864 64.6405 173.095C64.8812 173.327 65.023 173.642 65.0361 173.976Z" fill="#1E0930"/>
<path d="M82.364 162.576C82.364 162.918 82.2279 163.247 81.9856 163.489C81.7433 163.732 81.4147 163.868 81.072 163.868C80.7294 163.868 80.4007 163.732 80.1584 163.489C79.9162 163.247 79.78 162.918 79.78 162.576C79.78 162.233 79.9162 161.904 80.1584 161.662C80.4007 161.42 80.7294 161.284 81.072 161.284C81.4147 161.284 81.7433 161.42 81.9856 161.662C82.2279 161.904 82.364 162.233 82.364 162.576Z" fill="#1E0930"/>
<path d="M98.97 175.268C98.97 175.611 98.8338 175.94 98.5913 176.182C98.3488 176.425 98.02 176.561 97.677 176.561C97.3341 176.561 97.0052 176.425 96.7627 176.182C96.5203 175.94 96.384 175.611 96.384 175.268C96.384 174.925 96.5203 174.596 96.7627 174.354C97.0052 174.111 97.3341 173.975 97.677 173.975C98.02 173.975 98.3488 174.111 98.5913 174.354C98.8338 174.596 98.97 174.925 98.97 175.268Z" fill="#1E0930"/>
<path d="M121.616 178.878C121.616 179.221 121.48 179.55 121.237 179.792C120.995 180.035 120.666 180.171 120.323 180.171C119.98 180.171 119.651 180.035 119.409 179.792C119.166 179.55 119.03 179.221 119.03 178.878C119.03 178.535 119.166 178.206 119.409 177.964C119.651 177.721 119.98 177.585 120.323 177.585C120.666 177.585 120.995 177.721 121.237 177.964C121.48 178.206 121.616 178.535 121.616 178.878Z" fill="#1E0930"/>
<path d="M133.4 159.118C133.4 159.461 133.264 159.79 133.021 160.032C132.779 160.274 132.45 160.411 132.107 160.411C131.764 160.411 131.435 160.274 131.193 160.032C130.95 159.79 130.814 159.461 130.814 159.118C130.814 158.775 130.95 158.446 131.193 158.203C131.435 157.961 131.764 157.825 132.107 157.825C132.45 157.825 132.779 157.961 133.021 158.203C133.264 158.446 133.4 158.775 133.4 159.118Z" fill="#1E0930"/>
<path d="M155.434 158.852C155.434 159.195 155.298 159.523 155.056 159.766C154.813 160.008 154.485 160.144 154.142 160.144C153.799 160.144 153.471 160.008 153.229 159.766C152.986 159.523 152.85 159.195 152.85 158.852C152.85 158.509 152.986 158.181 153.229 157.938C153.471 157.696 153.799 157.56 154.142 157.56C154.485 157.56 154.813 157.696 155.056 157.938C155.298 158.181 155.434 158.509 155.434 158.852Z" fill="#1E0930"/>
<path d="M162.882 141.336C162.882 141.679 162.746 142.007 162.504 142.25C162.261 142.492 161.933 142.628 161.59 142.628C161.247 142.628 160.919 142.492 160.677 142.25C160.434 142.007 160.298 141.679 160.298 141.336C160.298 140.993 160.434 140.665 160.677 140.422C160.919 140.18 161.247 140.044 161.59 140.044C161.933 140.044 162.261 140.18 162.504 140.422C162.746 140.665 162.882 140.993 162.882 141.336Z" fill="#1E0930"/>
<path d="M112.078 196.622C112.078 196.965 111.942 197.293 111.7 197.536C111.457 197.778 111.129 197.914 110.786 197.914C110.443 197.914 110.115 197.778 109.873 197.536C109.63 197.293 109.494 196.965 109.494 196.622C109.494 196.279 109.63 195.951 109.873 195.708C110.115 195.466 110.443 195.33 110.786 195.33C111.129 195.33 111.457 195.466 111.7 195.708C111.942 195.951 112.078 196.279 112.078 196.622Z" fill="#1E0930"/>
<path d="M132.104 195.33C132.104 195.673 131.968 196.002 131.725 196.244C131.483 196.487 131.154 196.623 130.811 196.623C130.468 196.623 130.139 196.487 129.897 196.244C129.654 196.002 129.518 195.673 129.518 195.33C129.518 194.987 129.654 194.658 129.897 194.416C130.139 194.173 130.468 194.037 130.811 194.037C131.154 194.037 131.483 194.173 131.725 194.416C131.968 194.658 132.104 194.987 132.104 195.33Z" fill="#1E0930"/>
<path d="M354.278 156.724C352.948 156.8 350.592 156.914 350.06 156.952C351.048 153.8 352.8 153.76 354.278 156.724Z" fill="#1E0930"/>
<path d="M355.494 174.964C354.544 177.548 352.986 177.662 351.656 175.268C352.758 175.2 354.088 175.078 355.494 174.964Z" fill="#1E0930"/>
<path d="M215.7 131.8C215.707 131.974 215.679 132.148 215.617 132.31C215.555 132.473 215.461 132.622 215.34 132.747C215.219 132.873 215.074 132.973 214.914 133.041C214.754 133.109 214.581 133.145 214.407 133.145C214.233 133.145 214.06 133.109 213.9 133.041C213.74 132.973 213.595 132.873 213.474 132.747C213.353 132.622 213.259 132.473 213.197 132.31C213.136 132.148 213.107 131.974 213.114 131.8C213.127 131.466 213.269 131.15 213.51 130.918C213.751 130.686 214.073 130.557 214.407 130.557C214.741 130.557 215.063 130.686 215.304 130.918C215.545 131.15 215.687 131.466 215.7 131.8Z" fill="#1E0930"/>
<path d="M345.386 161.702C345.386 162.044 345.25 162.372 345.008 162.615C344.766 162.857 344.437 162.993 344.095 162.993C343.753 162.993 343.424 162.857 343.182 162.615C342.94 162.372 342.804 162.044 342.804 161.702C342.804 161.359 342.94 161.031 343.182 160.789C343.424 160.547 343.753 160.411 344.095 160.411C344.437 160.411 344.766 160.547 345.008 160.789C345.25 161.031 345.386 161.359 345.386 161.702Z" fill="#1E0930"/>
<path d="M315.026 246.894C315.014 244.71 314.888 242.528 314.646 240.358L325.628 230.174L315.026 246.894Z" fill="#1E0930"/>
<path d="M208.176 298.572C193.332 300.426 178.26 298.826 164.136 293.898" stroke="#1E0930" stroke-width="2.5" stroke-linecap="round" stroke-linejoin="round"/>
<path d="M284.286 241C275.128 262.448 258.492 279.84 237.472 289.942" stroke="#1E0930" stroke-width="2.5" stroke-linecap="round" stroke-linejoin="round"/>
<path d="M290.366 186.21C291.208 190.75 291.702 195.35 291.848 199.966" stroke="#1E0930" stroke-width="2.5" stroke-linecap="round" stroke-linejoin="round"/>
<path d="M211.026 108.694C233.204 112.18 253.448 123.359 268.212 140.272" stroke="#1E0930" stroke-width="2.5" stroke-linecap="round" stroke-linejoin="round"/>
<path d="M187.96 107.858C192.284 107.51 196.627 107.447 200.96 107.668C201.72 107.708 202.518 107.744 203.278 107.82" stroke="#1E0930" stroke-width="2.5" stroke-linecap="round" stroke-linejoin="round"/>
<path d="M120.172 144.678C134.321 126.411 154.587 113.863 177.246 109.34" stroke="#1E0930" stroke-width="2.5" stroke-linecap="round" stroke-linejoin="round"/>
<path d="M100.224 208.136C100.069 204.92 100.081 201.698 100.262 198.484C100.444 195.06 100.8 191.65 101.326 188.262" stroke="#1E0930" stroke-width="2.5" stroke-linecap="round" stroke-linejoin="round"/>
<path d="M144.338 284.246C133.337 277.193 123.887 267.975 116.562 257.154" stroke="#1E0930" stroke-width="2.5" stroke-linecap="round" stroke-linejoin="round"/>
<path d="M272.544 150.302C273.649 150.269 274.746 150.103 275.812 149.808L271.86 153.57" stroke="#1E0930" stroke-width="2.5" stroke-linecap="round" stroke-linejoin="round"/>
<path d="M371.568 160.6L379.054 157.18C383.802 155.014 383.854 152.704 378.18 154.52C377.836 154.63 369.402 157.138 368.072 157.332C367.046 157.482 365.272 157.634 365.072 156.952C364.31 154.352 367.472 147.328 365.262 146.616C363.82 146.154 361.356 150.686 359.79 153.95C358.694 156.234 356.79 156.61 354.28 156.724" stroke="#1E0930" stroke-width="2.5" stroke-linecap="round" stroke-linejoin="round"/>
<path d="M370.2 160.752C370.2 160.752 381.6 159.352 382.36 159.232C388.284 158.37 387.87 160.606 382.816 162.006C377.99 163.342 372.176 165.006 372.176 165.006" stroke="#1E0930" stroke-width="2.5" stroke-linecap="round" stroke-linejoin="round"/>
<path d="M370.2 164.97C373.94 165.082 377.682 164.98 381.41 164.666C387.374 164.2 386.728 166.186 381.676 167.44C378.559 168.292 375.384 168.914 372.176 169.302" stroke="#1E0930" stroke-width="2.5" stroke-linecap="round" stroke-linejoin="round"/>
<path d="M355.494 174.964C355.494 174.964 363.74 174.424 365.336 174.28C368.412 174 371.572 173.51 374.646 173.102C375.905 172.932 377.159 172.732 378.408 172.502C383.732 171.502 384.524 169.526 378.484 169.69C375.242 169.767 372.002 169.461 368.832 168.778" stroke="#1E0930" stroke-width="2.5" stroke-linecap="round" stroke-linejoin="round"/>
<path d="M369.972 158.928C370.549 163.661 369.519 168.451 367.046 172.528" stroke="#1E0930" stroke-width="2.5" stroke-linecap="round" stroke-linejoin="round"/>
<path d="M365.488 158.852C364.597 161.211 363.224 163.358 361.458 165.157C359.692 166.956 357.57 168.368 355.228 169.302" stroke="#1E0930" stroke-width="2.5" stroke-linecap="round" stroke-linejoin="round"/>
<path d="M292.518 180.262C292.252 181.022 291.986 181.82 291.682 182.662C289.706 181.332 288.03 180.472 287.464 180.002C289.174 180.072 290.846 180.186 292.518 180.262Z" stroke="#1E0930" stroke-width="2.5" stroke-linecap="round" stroke-linejoin="round"/>
<path d="M254.078 175.914L258.22 169.948C257.144 172.298 256.584 174.853 256.58 177.438" stroke="#1E0930" stroke-width="2.5" stroke-linecap="round" stroke-linejoin="round"/>
<path d="M267.8 157.37C269.174 157.37 270.95 156.19 271.866 153.57C272.234 152.514 272.464 151.416 272.55 150.302C268.978 150.34 264.39 148.502 269.586 136.814C270.704 134.302 272.874 130.46 275.57 131.048C278.192 131.622 279.992 136.264 279.77 139.248C279.68 140.53 280.57 140.216 281.624 139.466C284.568 137.362 286.64 142.39 281.13 144.746C280.764 145.148 280.49 145.626 280.33 146.146C278.908 152.146 278.858 157.088 284.89 158.458" stroke="#1E0930" stroke-width="2.5" stroke-linecap="round" stroke-linejoin="round"/>
<path d="M273 131.8C280.676 124.314 303.476 111.166 300.36 126.518C300.36 126.518 317.228 112.004 323.462 117.17C329.662 122.302 305.792 149.81 280.22 155.054" stroke="#1E0930" stroke-width="2.5" stroke-linecap="round" stroke-linejoin="round"/>
<path d="M353.632 177.016C349.134 177.016 347.37 154.874 351.922 154.52C327.522 157.12 302.218 161.19 284.894 158.434C278.866 165.867 273.948 174.136 270.294 182.982C267.974 174.656 267.13 165.987 267.8 157.37C264.534 157.104 228.89 133.47 213.882 124.692C210.627 126.892 207.855 129.731 205.731 133.036C203.608 136.341 202.18 140.043 201.532 143.918L256.586 177.438C256.572 178.052 256.586 178.696 256.62 179.384C256.902 184.48 258.852 191.738 264.342 203.424C271.132 205.45 281.656 201.72 287.978 198.066C287.578 192.512 290.814 185.506 292.524 180.266C312.966 181.2 332.488 179.58 353.632 177.016Z" stroke="#1E0930" stroke-width="2.5" stroke-linecap="round" stroke-linejoin="round"/>
<path d="M264.374 203.424L231.544 238.572C225.614 244.905 221.289 252.567 218.93 260.916L206.656 303.814C210.043 306.806 214.105 308.932 218.493 310.012C222.882 311.092 227.467 311.093 231.856 310.014L244.456 264.37C281.742 231.734 275.354 237.312 279.49 233.744L299.82 264.712C301.015 266.527 302.589 268.062 304.433 269.21C306.278 270.359 308.35 271.094 310.506 271.366C312.662 271.638 314.851 271.439 316.923 270.782C318.994 270.125 320.898 269.027 322.504 267.562L360.92 232.49C359.91 228.135 357.888 224.078 355.019 220.65C352.149 217.222 348.512 214.518 344.402 212.758L314.638 240.358C314.638 240.358 309.508 206.502 287.926 198.066" stroke="#1E0930" stroke-width="2.5" stroke-linecap="round" stroke-linejoin="round"/>
<path d="M276.458 236.368L273.798 225.082L279.498 233.746" stroke="#1E0930" stroke-width="2.5" stroke-linecap="round" stroke-linejoin="round"/>
<path d="M209.05 305.638C207.551 313.697 205.26 321.589 202.21 329.198C199.316 335.73 197.048 341.58 197.878 342.574C200.786 346.052 210.678 331.028 218.018 327.184C219.766 326.316 221.329 325.116 222.618 323.65C225.196 320.606 223.756 317.076 226.758 310.73" stroke="#1E0930" stroke-width="2.5" stroke-linecap="round" stroke-linejoin="round"/>
<path d="M359.37 227.818C365.662 222.462 372.26 217.476 379.13 212.886C385.094 208.932 390.148 205.21 389.996 203.956C389.458 199.472 372.976 206.738 364.766 206.046C362.814 205.842 360.841 206.01 358.952 206.54C355.152 207.688 354.658 211.29 348.692 215.052" stroke="#1E0930" stroke-width="2.5" stroke-linecap="round" stroke-linejoin="round"/>
<path d="M200.728 120.36C200.728 111.96 207.26 96.3 209.81 95.016C209.911 94.97 210.027 94.9656 210.131 95.0038C210.236 95.0419 210.322 95.1195 210.37 95.22C210.402 95.286 210.416 95.36 210.41 95.434C209.536 104.406 203.716 119.73 211.828 126.184" stroke="#1E0930" stroke-width="2.5" stroke-linecap="round" stroke-linejoin="round"/>
<path d="M202.514 140.082C199.588 138.106 195.46 134.682 195.598 131.342C195.98 122.11 195.922 117.776 195.94 114.128C195.954 111.43 198.076 111.352 199.512 116.028C200.772 120.13 202.096 125.908 202.096 125.908" stroke="#1E0930" stroke-width="2.5" stroke-linecap="round" stroke-linejoin="round"/>
<path d="M208.632 106.072C209.432 104.742 210.298 103.372 210.646 102.806C213.186 98.6739 214.206 99.6859 213.99 100.45C213.144 103.438 211.102 107.934 210.418 110.708C209.398 114.79 207.662 120.488 210.898 125.336" stroke="#1E0930" stroke-width="2.5" stroke-linecap="round" stroke-linejoin="round"/>
<path d="M169.836 241.2C169.836 241.2 162.274 242.834 152.052 244.088" stroke="#1E0930" stroke-width="2.5" stroke-linecap="round" stroke-linejoin="round"/>
<path d="M100.11 208.326C101.097 206.68 102.401 205.247 103.946 204.108V204.26C116.182 206.008 125.378 205.932 134.878 203.46C134.743 206.022 134.309 208.56 133.586 211.022C145.171 210.757 156.762 211.074 168.316 211.972C171.033 212.181 173.672 212.981 176.047 214.317C178.423 215.652 180.478 217.49 182.07 219.702C183.662 221.914 184.752 224.447 185.264 227.124C185.776 229.8 185.697 232.557 185.034 235.2C180.633 253.814 175.204 272.17 168.772 290.184C160.169 291.61 151.346 289.694 144.11 284.826C146.001 271.114 148.64 257.516 152.014 244.092C140.54 245.492 123.482 246.778 111.814 243.56C104.9 241.654 99.2639 237.674 96.8139 230.906C94.0159 223.226 96.5359 213.91 100.11 208.326Z" stroke="#1E0930" stroke-width="2.5" stroke-linecap="round" stroke-linejoin="round"/>
<path d="M133.624 211.062C131.724 211.1 129.862 211.176 128 211.252" stroke="#1E0930" stroke-width="2.5" stroke-linecap="round" stroke-linejoin="round"/>
<path d="M122.8 245.296L108.12 273.226C106.097 277.074 102.899 280.175 98.9915 282.08C95.084 283.985 90.6706 284.593 86.3936 283.816C83.5559 283.302 80.8594 282.192 78.4816 280.56L43.0356 256.28C46.1556 245.894 50.4176 239.126 58.9116 233.842L86.9616 251.8L96.8416 230.9" stroke="#1E0930" stroke-width="2.5" stroke-linecap="round" stroke-linejoin="round"/>
<path d="M104.972 240.624L119.45 251.682" stroke="#1E0930" stroke-width="2.5" stroke-linecap="round" stroke-linejoin="round"/>
<path d="M117.474 156.876L112.914 153.76C114.227 153.907 115.55 153.945 116.87 153.874" stroke="#1E0930" stroke-width="2.5" stroke-linecap="round" stroke-linejoin="round"/>
<path d="M125.986 157.826C125.302 158.244 124.618 158.626 123.934 159.042C123.191 159.626 122.272 159.94 121.327 159.933C120.382 159.926 119.468 159.598 118.734 159.004C117.569 157.544 116.916 155.741 116.876 153.874C122.988 153.516 123.362 149.406 116.454 137.232C116.381 137.586 116.216 137.915 115.976 138.184C115.735 138.454 115.427 138.655 115.083 138.767C114.74 138.879 114.373 138.897 114.019 138.822C113.666 138.746 113.339 138.577 113.072 138.334C112.935 138.618 112.736 138.868 112.489 139.065C112.242 139.261 111.954 139.4 111.646 139.469C111.339 139.538 111.019 139.537 110.712 139.466C110.404 139.394 110.117 139.254 109.872 139.056C109.777 139.386 109.601 139.688 109.359 139.932C109.118 140.177 108.819 140.356 108.489 140.455C108.16 140.553 107.811 140.567 107.475 140.495C107.139 140.424 106.826 140.268 106.566 140.044C107.858 142.284 108.39 144.792 106.642 143.082C104.666 141.146 102.538 143.994 105.656 146.314C106.239 146.837 106.668 147.51 106.896 148.26C107.124 149.01 107.142 149.808 106.948 150.568C108.751 153.198 109.471 156.421 108.96 159.568C108.618 161.168 106.338 162.418 103.56 161.696C106.874 167.65 113.694 173.136 120.326 170.792C127.624 168.222 125.986 157.826 125.986 157.826Z" stroke="#1E0930" stroke-width="2.5" stroke-linecap="round" stroke-linejoin="round"/>
<path d="M173.2 126.6C182.586 119.502 182.956 104.494 182.956 93.7318C182.956 93.3898 183.448 92.9318 183.714 93.1318C186.088 94.6758 189.246 110.678 188.486 119.098" stroke="#1E0930" stroke-width="2.5" stroke-linecap="round" stroke-linejoin="round"/>
<path d="M183.97 139.36C186.663 138.276 188.893 136.287 190.278 133.736C193.171 127.296 194.184 120.169 193.2 113.178C192.684 110.142 191.108 110.404 189.742 115.002C188.524 119.106 186.626 124.616 186.626 124.616" stroke="#1E0930" stroke-width="2.5" stroke-linecap="round" stroke-linejoin="round"/>
<path d="M173.042 126.5C175.658 123.3 178.12 117.62 178.006 114.622C177.699 111.261 177.114 107.931 176.258 104.666C176.086 103.866 177.084 102.802 179.982 108.266" stroke="#1E0930" stroke-width="2.5" stroke-linecap="round" stroke-linejoin="round"/>
<path d="M137.652 175.23C137.51 173.545 137.269 171.87 136.93 170.214L139.926 174" stroke="#1E0930" stroke-width="2.5" stroke-linecap="round" stroke-linejoin="round"/>
<path d="M134.916 203.462H134.954C136.588 193.81 138.374 184.044 137.652 175.23C152.826 167.27 172.112 151.84 184.052 141.336C185.406 139.982 180.664 133.986 179.36 132.448C178.022 130.87 172.79 125.06 170.944 125.984C156.996 137.975 141.957 148.635 126.024 157.826" stroke="#1E0930" stroke-width="2.5" stroke-linecap="round" stroke-linejoin="round"/>
<path d="M164.934 290.668C163.954 294.547 163.206 298.48 162.692 302.448C156.745 298.553 151.546 293.624 147.34 287.894C147.492 287.562 147.62 287.22 147.72 286.868" stroke="#1E0930" stroke-width="2.5" stroke-linecap="round" stroke-linejoin="round"/>
<path d="M147.302 302.4C146.077 300.111 145.158 297.671 144.568 295.142C143.921 296.67 143.582 298.311 143.568 299.97C144.046 302.336 144.878 304.615 146.038 306.732C149.952 314.028 153.866 329.304 156.678 329.114C157.096 329.076 157.552 328.278 158.008 326.948C155.016 323.46 151.178 309.514 147.302 302.4Z" stroke="#1E0930" stroke-width="2.5" stroke-linecap="round" stroke-linejoin="round"/>
<path d="M147.302 287.932C146.43 290.44 145.326 292.948 144.568 295.15C145.158 297.678 146.077 300.118 147.302 302.408C151.14 309.514 154.978 323.46 158.018 326.956C159.69 321.978 161.476 309.478 162.654 302.446C156.723 298.548 151.526 293.635 147.302 287.932Z" stroke="#1E0930" stroke-width="2.5" stroke-linecap="round" stroke-linejoin="round"/>
<path d="M44.6699 251.454C41.3168 249.562 37.8525 247.874 34.2959 246.4C39.6213 241.698 45.7479 237.992 52.3839 235.456C53.4099 236.14 53.5619 236.406 54.5499 236.976" stroke="#1E0930" stroke-width="2.5" stroke-linecap="round" stroke-linejoin="round"/>
<path d="M41.7819 228.654C39.3727 228.473 36.9501 228.666 34.5999 229.226C26.5439 231.086 10.7379 230.782 10.1999 233.556C10.1239 233.974 10.7699 234.62 11.9099 235.418C16.0519 233.404 30.5279 233.404 38.4699 231.618C40.9957 231.023 43.5916 230.781 46.1839 230.898C44.8836 229.86 43.386 229.096 41.7819 228.654Z" stroke="#1E0930" stroke-width="2.5" stroke-linecap="round" stroke-linejoin="round"/>
<path d="M46.152 230.858C43.5598 230.744 40.9642 230.987 38.438 231.58C30.534 233.404 16.058 233.404 11.916 235.418C16.248 238.382 27.836 243.436 34.296 246.4C39.6362 241.689 45.7745 237.97 52.422 235.418C50.18 233.898 48.052 232.188 46.152 230.858Z" stroke="#1E0930" stroke-width="2.5" stroke-linecap="round" stroke-linejoin="round"/>
<path d="M22.024 176.484C20.2995 177.056 18.5659 177.601 16.824 178.118C13.326 179.174 12.036 178.536 15.532 176.142C18.8373 173.898 22.4846 172.204 26.332 171.126" stroke="#1E0930" stroke-width="2.5" stroke-linecap="round" stroke-linejoin="round"/>
<path d="M29.812 166.718C28.7567 167.748 27.8017 168.877 26.96 170.088C25.4492 172.351 24.4274 174.905 23.96 177.586" stroke="#1E0930" stroke-width="2.5" stroke-linecap="round" stroke-linejoin="round"/>
<path d="M20.6939 173.216C8.03986 177.662 6.45186 175.588 17.0459 170.746C21.1334 168.996 25.3887 167.668 29.7459 166.782" stroke="#1E0930" stroke-width="2.5" stroke-linecap="round" stroke-linejoin="round"/>
<path d="M45.4757 176.558C40.1817 176.262 28.8857 178.236 20.6937 180.958C17.1217 182.136 15.2117 181.358 19.1737 178.374C20.843 177.126 22.6317 176.047 24.5137 175.152" stroke="#1E0930" stroke-width="2.5" stroke-linecap="round" stroke-linejoin="round"/>
<path d="M23.542 168.314C19.288 169.302 9.59201 169.666 24.682 164.78C27.038 164.018 29.882 163.38 32.548 162.804C32.6986 161.813 32.5253 160.8 32.054 159.916C30.454 157.236 30.994 156.148 33.612 157.75C36.9347 160.011 40.8798 161.18 44.898 161.094" stroke="#1E0930" stroke-width="2.5" stroke-linecap="round" stroke-linejoin="round"/>
<path d="M32.5479 162.8C32.5313 163.803 32.722 164.799 33.1079 165.725C33.4939 166.651 34.0668 167.488 34.7909 168.182C35.5149 168.877 36.3745 169.415 37.3159 169.762C38.2573 170.109 39.2602 170.258 40.2619 170.2" stroke="#1E0930" stroke-width="2.5" stroke-linecap="round" stroke-linejoin="round"/>
<path d="M116.448 137.27C116.372 138.752 114.472 139.36 113.066 138.372C112.922 138.649 112.719 138.892 112.472 139.082C112.224 139.273 111.938 139.408 111.634 139.476C111.329 139.545 111.013 139.546 110.707 139.48C110.402 139.414 110.115 139.282 109.866 139.094C109.771 139.424 109.594 139.725 109.352 139.968C109.11 140.212 108.811 140.392 108.482 140.49C108.153 140.588 107.805 140.602 107.469 140.53C107.133 140.459 106.82 140.304 106.56 140.08C107.814 142.322 108.384 144.832 106.636 143.12C104.66 141.184 102.54 143.986 105.648 146.35C106.232 146.873 106.662 147.547 106.889 148.297C107.117 149.048 107.135 149.846 106.94 150.606C103.788 145.326 98.1638 141.146 96.8718 139.854C93.8718 136.854 95.9978 134.952 98.5438 136.054C97.9438 134.42 99.8738 133.054 101.658 134.42C101.164 132.82 103.56 131.494 105.61 133.166C105.268 131.418 108.232 130.696 109.942 132.216C109.676 130.658 112.418 130.54 113.666 132.596C114.666 134.226 116.448 137.27 116.448 137.27Z" stroke="#1E0930" stroke-width="2.5" stroke-linecap="round" stroke-linejoin="round"/>
<path d="M101.022 186.932L103.8 183.36C102.434 183.096 101.142 182.828 99.8499 182.602" stroke="#1E0930" stroke-width="2.5" stroke-linecap="round" stroke-linejoin="round"/>
<path d="M103.568 161.702C103.074 161.512 79.168 155.28 45.582 158.502C43.7606 165.303 43.9692 172.489 46.182 179.174C64.1409 177.714 82.2167 178.868 99.8441 182.6C101.985 189.599 103.36 196.81 103.946 204.106" stroke="#1E0930" stroke-width="2.5" stroke-linecap="round" stroke-linejoin="round"/>
<path d="M80.0459 118.156C80.1349 119.185 79.9166 120.218 79.4188 121.124C78.9209 122.029 78.1658 122.767 77.2488 123.243C76.3318 123.72 75.2941 123.914 74.267 123.8C73.2398 123.687 72.2693 123.272 71.478 122.607C70.6867 121.943 70.1103 121.059 69.8215 120.066C69.5327 119.074 69.5446 118.019 69.8556 117.033C70.1666 116.048 70.7628 115.176 71.5688 114.53C72.3748 113.883 73.3544 113.49 74.3839 113.4C75.7645 113.284 77.1349 113.719 78.1958 114.61C79.2567 115.501 79.9218 116.776 80.0459 118.156Z" stroke="#1E0930" stroke-width="2.5" stroke-linecap="round" stroke-linejoin="round"/>
<path d="M288.352 299.332H271.898" stroke="#1E0930" stroke-width="2.5" stroke-linecap="round" stroke-linejoin="round"/>
<path d="M280.126 307.576V291.086" stroke="#1E0930" stroke-width="2.5" stroke-linecap="round" stroke-linejoin="round"/>
<path d="M57.5998 157.712C55.7398 164.65 56.0878 171.992 58.5878 178.726" stroke="#1E0930" stroke-width="2.5" stroke-linecap="round" stroke-linejoin="round"/>
<path d="M163.8 131.988C169.511 135.807 174.161 141.013 177.314 147.118" stroke="#1E0930" stroke-width="2.5" stroke-linecap="round" stroke-linejoin="round"/>
<path d="M354.278 156.724C352.948 156.8 350.592 156.914 350.06 156.952C351.048 153.8 352.8 153.76 354.278 156.724Z" stroke="#1E0930" stroke-width="2.5" stroke-linecap="round" stroke-linejoin="round"/>
<path d="M355.494 174.964C354.544 177.548 352.986 177.662 351.656 175.268C352.758 175.2 354.088 175.078 355.494 174.964Z" stroke="#1E0930" stroke-width="2.5" stroke-linecap="round" stroke-linejoin="round"/>
<path d="M282.386 200.8C297.776 211.6 301.986 224.932 308.452 248.6C308.679 249.426 309.113 250.18 309.713 250.79C310.314 251.401 311.06 251.848 311.882 252.09C312.704 252.329 313.573 252.355 314.408 252.164C315.243 251.973 316.015 251.572 316.652 251L352.8 218.244" stroke="#1E0930" stroke-width="2.5" stroke-linecap="round" stroke-linejoin="round"/>
<path d="M222.616 310.692L235.724 260.46L274.254 226.982" stroke="#1E0930" stroke-width="2.5" stroke-linecap="round" stroke-linejoin="round"/>
<path d="M124.352 209.504C122.897 211.965 120.935 214.089 118.596 215.734C116.257 217.378 113.594 218.506 110.786 219.042" stroke="#1E0930" stroke-width="2.5" stroke-linecap="round" stroke-linejoin="round"/>
<path d="M146.2 271.858C150.046 274.633 154.428 276.576 159.067 277.565C163.705 278.553 168.499 278.565 173.142 277.6" stroke="#1E0930" stroke-width="2.5" stroke-linecap="round" stroke-linejoin="round"/>
<path d="M69.1397 240.4C61.6937 245.416 56.9397 253.548 54.0557 263.8" stroke="#1E0930" stroke-width="2.5" stroke-linecap="round" stroke-linejoin="round"/>
<path d="M325.628 230.174L315.028 246.894C315.016 244.71 314.89 242.528 314.648 240.358" stroke="#1E0930" stroke-width="2.5" stroke-linecap="round" stroke-linejoin="round"/>
<path d="M173.212 126.6C178.656 122.496 179.982 116.4 180.172 110.854C179.783 106.975 179.122 103.128 178.196 99.3418C178.076 98.5818 179.146 97.6698 181.312 102.04L182.566 104.768" stroke="#1E0930" stroke-width="2.5" stroke-linecap="round" stroke-linejoin="round"/>
<path d="M196.016 56.9019C192.97 56.9019 189.993 57.8051 187.46 59.4973C184.928 61.1894 182.954 63.5946 181.788 66.4086C180.623 69.2225 180.318 72.319 180.912 75.3063C181.506 78.2936 182.973 81.0376 185.127 83.1913C187.28 85.3451 190.024 86.8118 193.012 87.406C195.999 88.0002 199.095 87.6952 201.909 86.5296C204.723 85.364 207.128 83.3902 208.821 80.8577C210.513 78.3251 211.416 75.3477 211.416 72.3019C211.421 69.2545 210.521 66.2742 208.829 63.7395C207.137 61.2049 204.73 59.2301 201.914 58.0659C200.044 57.2936 198.039 56.898 196.016 56.9019Z" stroke="#1E0930" stroke-width="2.5" stroke-linejoin="round"/>
<path d="M194.516 63.938C194.516 64.3358 194.674 64.7173 194.955 64.9986C195.237 65.28 195.618 65.438 196.016 65.438C196.414 65.438 196.795 65.28 197.077 64.9986C197.358 64.7173 197.516 64.3358 197.516 63.938C197.516 63.5402 197.358 63.1586 197.077 62.8773C196.795 62.596 196.414 62.438 196.016 62.438C195.618 62.438 195.237 62.596 194.955 62.8773C194.674 63.1586 194.516 63.5402 194.516 63.938Z" stroke="#1E0930" stroke-width="2.5" stroke-linejoin="round"/>
<path d="M196.75 69.5C196.75 69.3011 196.671 69.1103 196.53 68.9697C196.389 68.829 196.199 68.75 196 68.75C195.801 68.75 195.61 68.829 195.469 68.9697C195.329 69.1103 195.25 69.3011 195.25 69.5H196.75ZM195.25 81.876C195.25 82.0749 195.329 82.2657 195.469 82.4063C195.61 82.547 195.801 82.626 196 82.626C196.199 82.626 196.389 82.547 196.53 82.4063C196.671 82.2657 196.75 82.0749 196.75 81.876H195.25ZM195.25 69.5V81.876H196.75V69.5H195.25Z" fill="#1E0930"/>
</svg>
