<svg width="400" height="400" viewBox="0 0 400 400" fill="none" xmlns="http://www.w3.org/2000/svg">
<g clip-path="url(#clip0_113_1313)">
<path d="M193.93 214.902C182.72 222.54 174.892 235.232 169.53 247.81C162.976 263.144 98.7181 347.77 100.33 349.08C100.93 350.054 101.56 350.992 102.22 351.894L98.6201 355.882C102.8 361.962 112.832 369.03 119.71 370.512C120.61 368.846 121.634 367.248 122.77 365.732C124.416 366.146 126.086 366.46 127.77 366.674C137.646 354.538 163.468 322.274 186.466 291.746C181.866 315.91 176.362 341.244 170.666 371.5C171.846 372.072 173.052 372.588 174.266 373.068L172.254 382.178C180.004 384.382 188.216 384.382 195.966 382.178L197.472 376.604C199.112 376.504 200.754 376.346 202.388 376.136C218.31 327.952 230.588 264.872 237.804 216.574L193.93 214.902ZM177.818 293.102C171.054 291.544 161.668 284.902 157.45 279.65L175.13 253.168C180.527 260.143 187.785 265.452 196.068 268.482L177.818 293.102Z" fill="#EAA84F"/>
<path d="M113.262 239.868L107.904 243.098L113.794 253.244C94.0761 261.875 72.5723 265.642 51.0942 264.226L66.1802 290.56L123.446 257.5L113.262 239.868Z" fill="#EAA84F"/>
<path d="M96.1623 209.962L69.5623 225.238C78.1056 224.639 86.529 222.89 94.6043 220.038L97.7583 225.662C99.7232 224.736 101.772 224 103.876 223.462L96.1623 209.962Z" fill="#EAA84F"/>
<path d="M99.3159 228.24L100.19 229.76L102.66 228.392C101.544 228.412 100.426 228.362 99.3159 228.24Z" fill="#1E0930"/>
<path d="M248.276 114.2C246.186 114.428 243.944 117.544 242.462 122.028C244.062 121.228 245.768 120.28 247.862 119.064C249.054 118.344 250.421 117.963 251.814 117.962C251.24 115.95 250.1 113.974 248.276 114.2Z" fill="#1E0930"/>
<path d="M250.746 133.734C247.782 135.216 243.906 137.116 241.664 138.408C242.264 140.156 243.18 141.284 244.324 141.486C246.558 141.88 249.074 138.6 250.746 133.734Z" fill="#1E0930"/>
<path d="M256.446 143.082C256.446 143.044 253.368 145.248 249.112 148.06L268.912 144.716L256.446 143.082Z" fill="#1E0930"/>
<path d="M222.018 146.046L225.324 151.138C225.161 149.852 225.072 148.558 225.058 147.262C225.058 147.224 223.31 146.54 222.018 146.046Z" fill="#1E0930"/>
<path d="M208.718 130.58C194.886 140.422 199.104 145.98 214.988 140.992L214.686 140.016C215.249 139.226 215.563 138.286 215.59 137.316C215.617 136.346 215.354 135.39 214.836 134.57C211.836 130.732 215.33 128.072 217.078 131.036C218.028 132.67 218.446 132.062 218.446 130.656C217.724 130.276 217.724 129.856 218.37 129.478C218.292 128.773 218.165 128.075 217.99 127.388C218.224 127.712 218.526 127.98 218.874 128.175C219.223 128.37 219.61 128.486 220.008 128.516C220.407 128.545 220.807 128.486 221.18 128.344C221.554 128.201 221.892 127.979 222.17 127.692C218.598 126.666 219.092 125.64 219.77 125.564C225.06 125.298 227.012 125.978 235.17 125.336C237.32 124.428 241.484 122.636 243.53 121.498C243.388 114.4 220.226 122.216 208.718 130.58Z" fill="#1E0930"/>
<path d="M234.216 131.758C233.532 132.214 232.816 132.67 232.088 133.126C231.898 132.29 231.936 132.784 232.24 131.796C232.886 131.758 233.53 131.758 234.216 131.758Z" fill="#1E0930"/>
<path d="M186.53 291.7L183.376 307.774L220.654 243.516C212.784 256.094 200.054 273.726 186.53 291.7Z" fill="#1E0930"/>
<path d="M220.802 397.074C214.304 391.564 204.652 384.686 195.988 382.178C188.238 384.382 180.026 384.382 172.276 382.178C170.67 386.75 169.686 391.517 169.35 396.352C169.324 396.792 169.388 397.233 169.538 397.647C169.688 398.061 169.922 398.441 170.224 398.762C170.527 399.082 170.892 399.337 171.297 399.51C171.703 399.684 172.139 399.773 172.58 399.772C187.78 399.81 200.852 399.962 219.738 400C220.076 399.994 220.404 399.887 220.68 399.691C220.955 399.495 221.165 399.221 221.282 398.904C221.396 398.586 221.411 398.241 221.326 397.914C221.24 397.588 221.057 397.295 220.802 397.074Z" fill="#1E0930"/>
<path d="M116.036 388.001C115.752 381.939 117.036 375.905 119.76 370.483C112.882 369.001 102.85 361.933 98.6698 355.853L96.1298 358.695C92.0658 362.203 92.3538 368.015 94.1918 373.059C96.3198 378.987 98.2578 389.019 100.538 393.997C101.448 395.838 102.864 397.38 104.622 398.443C106.379 399.506 108.403 400.045 110.456 399.997H125.694C122.648 392.059 120.444 392.135 116.036 388.001Z" fill="#1E0930"/>
<path d="M197.584 201.374L193.442 207.986L193.138 203.996L197.584 201.374Z" fill="#1E0930"/>
<path d="M83.7359 233.37L82.4819 227.974L87.8779 226.72L89.1319 232.116L83.7359 233.37Z" fill="#1E0930"/>
<path d="M72.8679 234.7L72.3359 229.19L77.8079 228.658L78.3779 234.168L72.8679 234.7Z" fill="#1E0930"/>
<path d="M62.0759 235.004V229.494H67.6239V235.004H62.0759Z" fill="#1E0930"/>
<path d="M253.482 177.738C250.118 179.896 246.642 181.875 243.07 183.666C242.994 182.308 242.794 180.96 242.47 179.638L253.482 177.738Z" fill="#1E0930"/>
<path d="M214.38 85.0941L190.364 67.4941H120.102V102.688H165.33L165.178 102.384C178.959 94.42 194.321 89.5812 210.178 88.2101L214.38 85.0941ZM182.612 91.1361C182.667 91.1875 182.704 91.2545 182.719 91.3279C182.734 91.4012 182.726 91.4775 182.696 91.5461C182.677 91.5921 182.648 91.6337 182.612 91.6681C182.578 91.7041 182.536 91.7327 182.491 91.7522C182.445 91.7718 182.396 91.7818 182.346 91.7818C182.296 91.7818 182.247 91.7718 182.201 91.7522C182.156 91.7327 182.114 91.7041 182.08 91.6681L175.126 84.6681L168.13 91.6301C168.079 91.6846 168.012 91.7219 167.938 91.737C167.865 91.752 167.789 91.744 167.72 91.7141C167.674 91.6948 167.633 91.6662 167.598 91.6301C167.544 91.5787 167.506 91.5118 167.491 91.4384C167.476 91.365 167.484 91.2888 167.514 91.2201C167.533 91.1741 167.562 91.1326 167.598 91.0981L174.598 84.1441L167.644 77.1441C167.609 77.1092 167.581 77.0677 167.562 77.0221C167.544 76.9765 167.534 76.9275 167.534 76.8781C167.534 76.8287 167.544 76.7798 167.562 76.7342C167.581 76.6885 167.609 76.6471 167.644 76.6121C167.679 76.5772 167.72 76.5495 167.766 76.5306C167.812 76.5117 167.861 76.502 167.91 76.502C167.959 76.502 168.008 76.5117 168.054 76.5306C168.1 76.5495 168.141 76.5772 168.176 76.6121L175.13 83.6121L182.13 76.6581C182.201 76.588 182.296 76.5487 182.396 76.5487C182.496 76.5487 182.591 76.588 182.662 76.6581C182.732 76.7289 182.771 76.8245 182.771 76.9241C182.771 77.0238 182.732 77.1194 182.662 77.1901L175.662 84.1441L182.612 91.1361Z" fill="#1E0930"/>
<path d="M99.3159 228.24L100.19 229.76" stroke="#1E0930" stroke-width="2.5" stroke-linecap="round" stroke-linejoin="round"/>
<path d="M24 399.962H376.26" stroke="#1E0930" stroke-width="2.5" stroke-linecap="round" stroke-linejoin="round"/>
<path d="M120.102 369.866V391.412" stroke="#1E0930" stroke-width="2.5" stroke-linecap="round" stroke-linejoin="round"/>
<path d="M120.102 259.438V320.086" stroke="#1E0930" stroke-width="2.5" stroke-linecap="round" stroke-linejoin="round"/>
<path d="M120.102 20V146.046" stroke="#1E0930" stroke-width="2.5" stroke-linecap="round" stroke-linejoin="round"/>
<path d="M120.102 32.312V67.5H59.264L35.248 49.906L59.264 32.312H120.102Z" stroke="#1E0930" stroke-width="2.5" stroke-linecap="round" stroke-linejoin="round"/>
<path d="M165.322 102.688H120.102V67.5H190.364L214.38 85.094L210.124 88.21" stroke="#1E0930" stroke-width="2.5" stroke-linecap="round" stroke-linejoin="round"/>
<path d="M155.404 162.424H141.572" stroke="#1E0930" stroke-width="2.5" stroke-linecap="round" stroke-linejoin="round"/>
<path d="M135.91 179.638L148.488 141.486L161.104 179.638" stroke="#1E0930" stroke-width="2.5" stroke-linecap="round" stroke-linejoin="round"/>
<path d="M189.946 167.858L156.316 109.49C137.456 120.371 122.787 137.258 114.652 157.455C106.517 177.651 105.386 199.991 111.438 220.906" stroke="#1E0930" stroke-width="2.5" stroke-linecap="round" stroke-linejoin="round"/>
<path d="M199.598 162.158L165.13 102.346C179.506 94.0638 195.577 89.1605 212.128 88.0072C228.679 86.854 245.275 89.4811 260.66 95.6897C276.046 101.898 289.817 111.526 300.932 123.843C312.047 136.16 320.214 150.845 324.815 166.785C329.415 182.725 330.33 199.503 327.488 215.849C324.647 232.195 318.124 247.68 308.414 261.132C298.703 274.584 286.06 285.651 271.44 293.495C256.82 301.339 240.608 305.754 224.03 306.406" stroke="#1E0930" stroke-width="2.5" stroke-linecap="round" stroke-linejoin="round"/>
<path d="M180.75 299.338C182.08 299.832 183.41 300.326 184.778 300.782" stroke="#1E0930" stroke-width="2.5" stroke-linecap="round" stroke-linejoin="round"/>
<path d="M130.438 237.284L119.988 243.4C118.848 241.538 118.316 240.588 118.316 240.588" stroke="#1E0930" stroke-width="2.5" stroke-linecap="round" stroke-linejoin="round"/>
<path d="M148.602 280.186C139.338 272.261 131.476 262.831 125.346 252.294L193.746 212.356" stroke="#1E0930" stroke-width="2.5" stroke-linecap="round" stroke-linejoin="round"/>
<path d="M250.746 133.734C247.782 135.216 243.894 137.096 241.664 138.408C241.092 138.744 240.604 139.02 240.296 139.244C234.43 143.51 235.696 140.8 236.952 138.522C237.52 137.494 239.856 135.11 240.828 133.278C241.104 132.532 241.118 131.714 240.866 130.96C237.303 131.616 233.688 131.947 230.066 131.948C227.6 132.152 225.118 132.088 222.666 131.758C216.066 130.864 216.666 129.222 222.78 128.452C227.026 127.906 231.196 126.873 235.206 125.374C239.598 123.628 243.842 121.531 247.898 119.104C249.081 118.388 250.437 118.006 251.82 118" stroke="#1E0930" stroke-width="2.5" stroke-linecap="round" stroke-linejoin="round"/>
<path d="M242.462 122.03C243.944 117.546 246.188 114.446 248.276 114.202C250.102 113.988 251.242 115.95 251.81 117.964C252.882 123.221 252.514 128.669 250.746 133.734C249.116 138.612 246.558 141.88 244.324 141.486C243.18 141.286 242.272 140.156 241.664 138.408" stroke="#1E0930" stroke-width="2.5" stroke-linecap="round" stroke-linejoin="round"/>
<path d="M218.446 130.694C218.446 132.094 218.034 132.666 217.078 131.036C215.34 128.066 211.834 130.732 214.836 134.57C215.348 135.392 215.607 136.347 215.58 137.316C215.554 138.284 215.243 139.223 214.686 140.016" stroke="#1E0930" stroke-width="2.5" stroke-linecap="round" stroke-linejoin="round"/>
<path d="M222.17 127.692C221.75 128.124 221.2 128.405 220.604 128.493C220.008 128.58 219.4 128.469 218.874 128.176C218.525 127.981 218.224 127.712 217.99 127.388C218.166 128.102 218.294 128.828 218.372 129.558" stroke="#1E0930" stroke-width="2.5" stroke-linecap="round" stroke-linejoin="round"/>
<path d="M228.972 120.662C228.972 120.7 228.972 120.7 229.01 120.738C229.504 122.486 229.96 124.12 230.378 125.678" stroke="#1E0930" stroke-width="2.5" stroke-linecap="round" stroke-linejoin="round"/>
<path d="M225.096 147.224C225.096 147.224 223.31 146.54 222.018 146.008L225.324 151.138" stroke="#1E0930" stroke-width="2.5" stroke-linecap="round" stroke-linejoin="round"/>
<path d="M248.952 148.088L268.91 144.716L256.446 143.044" stroke="#1E0930" stroke-width="2.5" stroke-linecap="round" stroke-linejoin="round"/>
<path d="M240.866 130.96C241.74 130.808 242.728 130.504 243.83 130.276" stroke="#1E0930" stroke-width="2.5" stroke-linecap="round" stroke-linejoin="round"/>
<path d="M223.766 128.3L222.55 127.806C218.56 126.78 218.95 125.64 219.7 125.606C221.22 125.53 225.666 125.834 230.3 125.682L235.164 125.34" stroke="#1E0930" stroke-width="2.5" stroke-linecap="round" stroke-linejoin="round"/>
<path d="M261.88 116.4C263.351 120.878 263.75 125.638 263.044 130.298C262.338 134.958 260.546 139.387 257.814 143.228" stroke="#1E0930" stroke-width="2.5" stroke-linecap="round" stroke-linejoin="round"/>
<path d="M214.966 141C201.022 145.364 196.456 141.586 203.946 134.432C209.992 128.66 221.61 122.76 229.486 120.5C235.034 118.792 241.486 117.942 243.126 120.23" stroke="#1E0930" stroke-width="2.5" stroke-linecap="round" stroke-linejoin="round"/>
<path d="M234.216 131.758C233.532 132.214 232.816 132.67 232.088 133.126" stroke="#1E0930" stroke-width="2.5" stroke-linecap="round" stroke-linejoin="round"/>
<path d="M208.756 130.58C208.342 128.596 208.43 126.541 209.014 124.6C209.598 122.66 210.658 120.897 212.098 119.471C213.538 118.045 215.312 117.003 217.258 116.438C219.204 115.874 221.261 115.806 223.24 116.24C225.889 116.82 228.268 118.269 229.998 120.358" stroke="#1E0930" stroke-width="2.5" stroke-linecap="round" stroke-linejoin="round"/>
<path d="M212.898 155.85V167.174L223.728 158.434L234.216 165.16L230.416 154.52" stroke="#1E0930" stroke-width="2.5" stroke-linecap="round" stroke-linejoin="round"/>
<path d="M230.416 154.52C230.616 154.486 243.166 151.006 245.862 149.8C249.538 147.789 253.074 145.532 256.446 143.044L243.982 141.41" stroke="#1E0930" stroke-width="2.5" stroke-linecap="round" stroke-linejoin="round"/>
<path d="M220.65 243.516L183.372 307.774" stroke="#1E0930" stroke-width="2.5" stroke-linecap="round" stroke-linejoin="round"/>
<path d="M197.508 376.554L195.95 382.178" stroke="#1E0930" stroke-width="2.5" stroke-linecap="round" stroke-linejoin="round"/>
<path d="M172.276 382.178L174.288 373.068" stroke="#1E0930" stroke-width="2.5" stroke-linecap="round" stroke-linejoin="round"/>
<path d="M219.73 400C200.844 399.982 187.772 399.8 172.572 399.772C172.131 399.774 171.694 399.686 171.289 399.512C170.884 399.338 170.518 399.083 170.216 398.762C169.915 398.44 169.682 398.061 169.531 397.647C169.381 397.232 169.317 396.792 169.342 396.352C169.677 391.517 170.662 386.75 172.268 382.178C180.018 384.382 188.23 384.382 195.98 382.178C204.644 384.686 214.282 391.578 220.794 397.074C221.05 397.295 221.232 397.588 221.318 397.914C221.403 398.241 221.388 398.586 221.274 398.904C221.158 399.221 220.948 399.496 220.672 399.691C220.397 399.887 220.068 399.995 219.73 400Z" stroke="#1E0930" stroke-width="2.5" stroke-linecap="round" stroke-linejoin="round"/>
<path d="M122.8 365.724C121.417 367.474 120.246 369.382 119.312 371.408C116.895 376.603 115.771 382.306 116.036 388.03C120.436 392.172 122.648 392.058 125.688 400H110.45C108.398 400.045 106.375 399.505 104.618 398.442C102.862 397.38 101.444 395.839 100.532 394C98.2679 389.014 96.3179 378.988 94.1859 373.062C92.5179 368.424 91.9059 362.262 96.1239 358.698L102.26 351.92" stroke="#1E0930" stroke-width="2.5" stroke-linecap="round" stroke-linejoin="round"/>
<path d="M119.73 370.512C112.852 369.03 102.82 361.962 98.6399 355.882" stroke="#1E0930" stroke-width="2.5" stroke-linecap="round" stroke-linejoin="round"/>
<path d="M116.036 388.03C113.036 385.978 102.888 388.03 102.888 388.03" stroke="#1E0930" stroke-width="2.5" stroke-linecap="round" stroke-linejoin="round"/>
<path d="M205.53 224.934C201.388 231.888 194.93 235.246 186.15 235.004" stroke="#1E0930" stroke-width="2.5" stroke-linecap="round" stroke-linejoin="round"/>
<path d="M157.456 279.654C161.674 284.898 171.056 291.548 177.824 293.106L196.064 268.52C187.782 265.488 180.525 260.178 175.13 253.2L157.456 279.654Z" stroke="#1E0930" stroke-width="2.5" stroke-linecap="round" stroke-linejoin="round"/>
<path d="M175.126 253.206L177.406 273.384L196.064 268.52" stroke="#1E0930" stroke-width="2.5" stroke-linecap="round" stroke-linejoin="round"/>
<path d="M221.03 307.2C222.18 307.285 223.321 306.95 224.243 306.259C225.165 305.567 225.806 304.565 226.046 303.438L231.822 274.52C231.915 274.044 231.903 273.553 231.786 273.083C231.67 272.612 231.451 272.173 231.146 271.796C230.84 271.419 230.456 271.114 230.02 270.902C229.584 270.689 229.107 270.575 228.622 270.568" stroke="#1E0930" stroke-width="2.5" stroke-linecap="round" stroke-linejoin="round"/>
<path d="M271.874 235.156C271.874 235.156 293.42 238 293.42 223.8C293.42 211.298 271.874 211.412 271.874 211.412C271.874 211.412 287.074 212.012 287.074 204.154C287.074 196.364 271.874 197.01 271.874 197.01V235.156Z" stroke="#1E0930" stroke-width="2.5" stroke-linecap="round" stroke-linejoin="round"/>
<path d="M311.204 310.2C311.212 311.62 310.798 313.011 310.014 314.196C309.43 315.083 308.656 315.83 307.748 316.382C306.84 316.934 305.821 317.277 304.764 317.387C303.707 317.497 302.639 317.371 301.637 317.017C300.635 316.664 299.724 316.092 298.97 315.344C297.959 314.345 297.267 313.069 296.982 311.677C296.697 310.284 296.831 308.839 297.368 307.523C297.905 306.207 298.82 305.08 299.998 304.285C301.176 303.49 302.563 303.062 303.984 303.056C304.927 303.049 305.863 303.229 306.737 303.585C307.611 303.94 308.406 304.465 309.077 305.129C309.748 305.793 310.281 306.582 310.646 307.452C311.011 308.323 311.201 309.256 311.204 310.2Z" stroke="#1E0930" stroke-width="2.5" stroke-linecap="round" stroke-linejoin="round"/>
<path d="M329.9 328.37C329.908 329.79 329.494 331.181 328.71 332.366C328.124 333.251 327.349 333.996 326.441 334.546C325.533 335.096 324.515 335.438 323.459 335.548C322.403 335.658 321.336 335.532 320.334 335.181C319.333 334.829 318.421 334.26 317.666 333.514C316.655 332.515 315.963 331.239 315.678 329.847C315.393 328.454 315.527 327.009 316.064 325.693C316.601 324.377 317.516 323.251 318.694 322.455C319.872 321.66 321.259 321.232 322.68 321.226C323.624 321.217 324.56 321.396 325.434 321.752C326.309 322.107 327.104 322.633 327.774 323.298C328.444 323.962 328.977 324.752 329.342 325.622C329.707 326.492 329.896 327.426 329.9 328.37Z" stroke="#1E0930" stroke-width="2.5" stroke-linecap="round" stroke-linejoin="round"/>
<path d="M296.992 335.742L329.748 302.606" stroke="#1E0930" stroke-width="2.5" stroke-linecap="round" stroke-linejoin="round"/>
<path d="M71.158 46.4859L77.58 55.4919L85.066 42.4199" stroke="#1E0930" stroke-width="2.5" stroke-linecap="round" stroke-linejoin="round"/>
<path d="M298.284 64.84L290.152 63.662L286.504 56.252L282.856 63.662L274.686 64.84L280.576 70.616L279.208 78.71L286.504 74.872L293.8 78.71L292.394 70.616L298.284 64.84Z" stroke="#1E0930" stroke-width="2.5" stroke-linecap="round" stroke-linejoin="round"/>
<path d="M73.6479 173.824V185.414" stroke="#1E0930" stroke-width="2.5" stroke-linecap="round" stroke-linejoin="round"/>
<path d="M79.442 179.62H67.8521" stroke="#1E0930" stroke-width="2.5" stroke-linecap="round" stroke-linejoin="round"/>
<path d="M128.158 234.928C123.915 237.781 119.395 240.2 114.668 242.148" stroke="#1E0930" stroke-width="2.5" stroke-linecap="round" stroke-linejoin="round"/>
<path d="M83.7359 233.37L82.4819 227.974L87.8779 226.72L89.1319 232.116L83.7359 233.37Z" stroke="#1E0930" stroke-width="2.5" stroke-linecap="round" stroke-linejoin="round"/>
<path d="M72.8679 234.7L72.3359 229.19L77.8079 228.658L78.3779 234.168L72.8679 234.7Z" stroke="#1E0930" stroke-width="2.5" stroke-linecap="round" stroke-linejoin="round"/>
<path d="M62.0759 235.004V229.494H67.6239V235.004H62.0759Z" stroke="#1E0930" stroke-width="2.5" stroke-linecap="round" stroke-linejoin="round"/>
<path d="M113.3 239.868L123.446 257.5L66.2182 290.56L51.0942 264.226" stroke="#1E0930" stroke-width="2.5" stroke-linecap="round" stroke-linejoin="round"/>
<path d="M102.66 228.392L97.7581 231.09L105.662 244.466L113.3 239.868L106.498 228.05" stroke="#1E0930" stroke-width="2.5" stroke-linecap="round" stroke-linejoin="round"/>
<path d="M97.7581 225.656L94.5581 220.032C76.3799 226.282 56.8006 227.242 38.0981 222.8C38.1903 236.676 40.368 250.46 44.5581 263.688C68.1538 266.332 92.0299 262.728 113.794 253.238L107.942 243.092" stroke="#1E0930" stroke-width="2.5" stroke-linecap="round" stroke-linejoin="round"/>
<path d="M69.5239 225.238L96.1239 209.962L103.876 223.452" stroke="#1E0930" stroke-width="2.5" stroke-linecap="round" stroke-linejoin="round"/>
<path d="M364.93 209.2C365.084 210.064 364.978 210.955 364.624 211.759C364.269 212.562 363.684 213.242 362.942 213.712C362.201 214.182 361.338 214.423 360.461 214.403C359.584 214.383 358.733 214.105 358.014 213.602C357.476 213.226 357.028 212.734 356.704 212.164C356.379 211.594 356.185 210.958 356.136 210.304C356.086 209.649 356.183 208.992 356.419 208.379C356.655 207.767 357.024 207.214 357.5 206.762C358.08 206.207 358.8 205.819 359.583 205.642C360.366 205.464 361.183 205.502 361.946 205.753C362.709 206.003 363.39 206.456 363.915 207.063C364.441 207.67 364.791 208.409 364.93 209.2Z" stroke="#1E0930" stroke-width="2.5" stroke-linecap="round" stroke-linejoin="round"/>
<path d="M119.874 229.228C117.404 229.988 110.564 231.926 107.638 227.898C107.638 227.898 99.4381 229.266 97.1121 227.404C94.7861 225.542 103.764 223.648 107.112 222.502C110.992 221.123 114.82 219.602 118.588 217.942" stroke="#1E0930" stroke-width="2.5" stroke-linecap="round" stroke-linejoin="round"/>
<path d="M243.07 183.666C242.994 182.308 242.794 180.959 242.47 179.638L253.49 177.738" stroke="#1E0930" stroke-width="2.5" stroke-linecap="round" stroke-linejoin="round"/>
<path d="M193.93 214.902C182.72 222.54 174.9 235.236 169.53 247.81C167.406 252.79 158.93 265.442 148.592 280.186C139.51 293.144 128.992 307.7 120.092 320.086C108.544 336.164 99.7239 348.586 100.332 349.086C103.219 353.953 107.203 358.078 111.966 361.134C116.73 364.189 122.14 366.09 127.768 366.686C143.538 347.306 199.968 276.626 220.64 243.566" stroke="#1E0930" stroke-width="2.5" stroke-linecap="round" stroke-linejoin="round"/>
<path d="M209.174 263.276L183.372 375.68" stroke="#1E0930" stroke-width="2.5" stroke-linecap="round" stroke-linejoin="round"/>
<path d="M237.864 216.536C230.644 264.834 218.37 327.914 202.448 376.098C191.648 377.728 180.608 376.128 170.718 371.498C176.372 341.442 177.294 338.75 186.518 291.698" stroke="#1E0930" stroke-width="2.5" stroke-linecap="round" stroke-linejoin="round"/>
<path d="M249.104 114.254L284.304 119.75C297.642 121.802 301.176 135.476 290.84 146.92C279.144 159.87 258.462 176.062 243.074 183.666C243.644 195.484 240.49 206.01 237.874 216.574L193.93 214.902C193.33 206.574 193.516 209.032 193.13 203.996L132.692 239.4C125.134 232.573 119.785 223.646 117.33 213.762C117.33 213.762 180.18 173.862 192.036 166.6C198.669 162.424 205.649 158.826 212.898 155.846" stroke="#1E0930" stroke-width="2.5" stroke-linecap="round" stroke-linejoin="round"/>
<path d="M160.952 283.34L107.6 357.782" stroke="#1E0930" stroke-width="2.5" stroke-linecap="round" stroke-linejoin="round"/>
<path d="M197.584 232.648L179.268 257.766" stroke="#1E0930" stroke-width="2.5" stroke-linecap="round" stroke-linejoin="round"/>
<path d="M127.778 207.15C130.182 217.238 135.732 226.3 143.624 233.028" stroke="#1E0930" stroke-width="2.5" stroke-linecap="round" stroke-linejoin="round"/>
<path d="M210.014 129.712C211.578 132.4 212.924 135.209 214.04 138.112C215.827 142.316 216.303 146.961 215.406 151.44C215.112 153.147 214.24 154.7 212.936 155.84C218.978 160.096 225.514 159.602 230.416 154.51C227.452 154.928 225.75 154.546 225.324 151.128C225.166 149.829 225.09 148.522 225.096 147.214C226.098 147.498 227.133 147.651 228.174 147.67C232.848 147.67 234.14 143.566 232.088 133.116L231.828 131.82" stroke="#1E0930" stroke-width="2.5" stroke-linecap="round" stroke-linejoin="round"/>
<path d="M193.138 203.996L197.584 201.374L193.442 207.986" stroke="#1E0930" stroke-width="2.5" stroke-linecap="round" stroke-linejoin="round"/>
<path d="M168.358 76.4581C168.216 76.3256 168.028 76.2535 167.833 76.257C167.639 76.2604 167.454 76.3391 167.316 76.4765C167.179 76.6139 167.1 76.7993 167.097 76.9936C167.093 77.1879 167.165 77.3759 167.298 77.5181L168.358 76.4581ZM181.898 92.1181C181.967 92.1918 182.049 92.2509 182.141 92.2919C182.233 92.3329 182.333 92.3549 182.433 92.3567C182.534 92.3585 182.634 92.34 182.728 92.3022C182.821 92.2645 182.906 92.2084 182.977 92.1372C183.048 92.0659 183.104 91.9811 183.142 91.8877C183.18 91.7943 183.198 91.6943 183.197 91.5936C183.195 91.4929 183.173 91.3936 183.132 91.3016C183.091 91.2096 183.032 91.1268 182.958 91.0581L181.898 92.1181ZM167.298 77.5181L181.898 92.1181L182.958 91.0581L168.358 76.4581L167.298 77.5181Z" fill="#1E0930"/>
<path d="M182.958 77.5181C183.09 77.3759 183.163 77.1879 183.159 76.9936C183.156 76.7993 183.077 76.6139 182.94 76.4765C182.802 76.3391 182.617 76.2604 182.422 76.257C182.228 76.2535 182.04 76.3256 181.898 76.4581L182.958 77.5181ZM167.298 91.0581C167.165 91.2003 167.093 91.3883 167.097 91.5826C167.1 91.7769 167.179 91.9623 167.316 92.0997C167.454 92.2372 167.639 92.3159 167.833 92.3193C168.028 92.3227 168.216 92.2506 168.358 92.1181L167.298 91.0581ZM181.898 76.4581L167.298 91.0581L168.358 92.1181L182.958 77.5181L181.898 76.4581Z" fill="#1E0930"/>
</g>
<defs>
<clipPath id="clip0_113_1313">
<rect width="400" height="400" fill="white"/>
</clipPath>
</defs>
</svg>
