<svg width="974" height="1047" viewBox="0 0 974 1047" fill="none" xmlns="http://www.w3.org/2000/svg">
<rect x="427.824" y="4" width="30" height="73" rx="8" fill="#F0AA48"/>
<rect x="515.234" width="30" height="188" rx="8" fill="#F0AA48"/>
<rect x="515.234" y="758" width="30" height="289" rx="8" fill="#F0AA48"/>
<rect x="426.234" y="758" width="30" height="289" rx="8" fill="#F0AA48"/>
<path d="M608.823 78C608.823 73.5817 612.405 70 616.823 70H638.823V595C638.823 595.552 638.376 596 637.823 596H616.823C612.405 596 608.823 592.418 608.823 588V78Z" fill="#F0AA48"/>
<path d="M331.823 82C331.823 77.5817 335.405 74 339.823 74H353.823C358.242 74 361.823 77.5817 361.823 82V588C361.823 592.418 358.242 596 353.823 596H332.823C332.271 596 331.823 595.552 331.823 595V82Z" fill="#F0AA48"/>
<path d="M467.06 631.526L484.694 605.996L734.625 778.624C743.713 784.901 745.992 797.358 739.715 806.446L733.447 815.521L467.06 631.526Z" fill="#F0AA48"/>
<path d="M467.608 502.81L485.242 477.279L630.582 577.666C639.671 583.944 641.95 596.4 635.672 605.489L629.405 614.563L467.608 502.81Z" fill="#F0AA48"/>
<path d="M503.039 502.81L485.405 477.279L340.064 577.666C330.975 583.944 328.696 596.4 334.974 605.489L341.241 614.563L503.039 502.81Z" fill="#F0AA48"/>
<path d="M713.234 413.001V413.001C729.803 413.001 743.234 426.432 743.234 443.001V796.001H721.234C716.816 796.001 713.234 792.419 713.234 788.001V413.001Z" fill="#F0AA48"/>
<path d="M502.081 631.525L484.447 605.995L234.516 778.623C225.428 784.9 223.149 797.357 229.426 806.445L235.694 815.52L502.081 631.525Z" fill="#F0AA48"/>
<path d="M256.234 413V413C239.665 413 226.234 426.431 226.234 443V796H248.234C252.652 796 256.234 792.418 256.234 788V413Z" fill="#F0AA48"/>
<circle cx="147.234" cy="646" r="40" fill="#F0AA48"/>
<circle cx="733.234" cy="275" r="40" fill="#F0AA48"/>
<path d="M634.323 84.5C1031.32 187.5 1135.82 892 531.823 999.5" stroke="#F0AA48" stroke-width="30"/>
<path d="M730.823 278.5C796.823 317 950.323 563.5 723.234 804" stroke="#F0AA48" stroke-width="30"/>
<path d="M619.323 715C619.323 757 551.734 773 521.734 773" stroke="#F0AA48" stroke-width="30"/>
<path d="M345.614 715C345.614 757 413.203 773 443.204 773" stroke="#F0AA48" stroke-width="30"/>
<path d="M524.234 173C163.823 168 90.4153 495 147.825 643.5" stroke="#F0AA48" stroke-width="30"/>
<path d="M445.324 62C-55.176 89 -194.677 885.5 438.325 1000" stroke="#F0AA48" stroke-width="30"/>
</svg>
